<svg id="kity_svg_6" xmlns="http://www.w3.org/2000/svg" xmlns:xlink="http://www.w3.org/1999/xlink" version="1.1" width="1627" height="435" style="background: rgb(251, 251, 251); visibility: visible;" viewBox="0 0 1627 435"><defs id="kity_defs_7"><linearGradient id="kity_linearGradient_17" x1="0" y1="0" x2="0" y2="1"><stop id="kity_stop_18" offset="0" stop-color="rgb(255, 255, 255)"></stop><stop id="kity_stop_19" offset="1" stop-color="rgb(204, 204, 204)"></stop></linearGradient><marker id="kity_marker_2" orient="auto" refX="6" refY="0" viewBox="-7 -7 14 14" markerWidth="7" markerHeight="7" markerUnits="userSpaceOnUse"><path id="kity_path_3" fill="rgb(115, 161, 191)" stroke="none" d="M6,0A6,6,0,1,1,-6,0A6,6,0,1,1,6,0"></path></marker></defs><g id="kity_g_8"><g id="minder1" text-rendering="optimize-speed"><g id="minder_connect_group1"><path id="kity_path_31" fill="none" stroke="rgb(115, 161, 191)" stroke-width="1" d="M699.5000120475888,72.50000339001417v10h-636.5V90.50000339001417"></path><path id="kity_path_33" fill="none" stroke="rgb(115, 161, 191)" stroke-width="1" d="M40.500012047588825,116.50000339001417V189.50000339001417L48.500012047588825,189.50000339001417"></path><path id="kity_path_35" fill="none" stroke="rgb(115, 161, 191)" stroke-width="1" d="M40.500012047588825,116.50000339001417V267.5000033900142L48.500012047588825,267.5000033900142"></path><path id="kity_path_37" fill="none" stroke="rgb(115, 161, 191)" stroke-width="1" d="M699.5000120475888,72.50000339001417v10h-328V90.50000339001417"></path><path id="kity_path_39" fill="none" stroke="rgb(115, 161, 191)" stroke-width="1" d="M342.5000120475888,116.50000339001417V137.50000339001417L350.5000120475888,137.50000339001417"></path><path id="kity_path_41" fill="none" stroke="rgb(115, 161, 191)" stroke-width="1" d="M342.5000120475888,116.50000339001417V163.50000339001417L350.5000120475888,163.50000339001417"></path><path id="kity_path_43" fill="none" stroke="rgb(115, 161, 191)" stroke-width="1" d="M699.5000120475888,72.50000339001417v10h-11.5V90.50000339001417"></path><path id="kity_path_45" fill="none" stroke="rgb(115, 161, 191)" stroke-width="1" d="M658.5000120475888,116.50000339001417V137.50000339001417L666.5000120475888,137.50000339001417"></path><path id="kity_path_47" fill="none" stroke="rgb(115, 161, 191)" stroke-width="1" d="M658.5000120475888,116.50000339001417V233.50000339001417L666.5000120475888,233.50000339001417"></path><path id="kity_path_49" fill="none" stroke="rgb(115, 161, 191)" stroke-width="1" d="M699.5000120475888,72.50000339001417v10h335V90.50000339001417"></path><path id="kity_path_51" fill="none" stroke="rgb(115, 161, 191)" stroke-width="1" d="M998.5000120475888,116.50000339001417V137.50000339001417L1006.5000120475888,137.50000339001417"></path><path id="kity_path_53" fill="none" stroke="rgb(115, 161, 191)" stroke-width="1" d="M998.5000120475888,116.50000339001417V303.5000033900142L1006.5000120475888,303.5000033900142"></path><path id="kity_path_55" fill="none" stroke="rgb(115, 161, 191)" stroke-width="1" d="M699.5000120475888,72.50000339001417v10h638.5V90.50000339001417"></path><path id="kity_path_57" fill="none" stroke="rgb(115, 161, 191)" stroke-width="1" d="M1316.5000120475888,116.50000339001417V137.50000339001417L1324.5000120475888,137.50000339001417"></path><path id="kity_path_59" fill="none" stroke="rgb(115, 161, 191)" stroke-width="1" d="M1316.5000120475888,116.50000339001417V215.50000339001417L1324.5000120475888,215.50000339001417"></path><path id="kity_path_61" fill="none" stroke="rgb(115, 161, 191)" stroke-width="1" d="M1316.5000120475888,116.50000339001417V345.5000033900142L1324.5000120475888,345.5000033900142"></path><path id="kity_path_168" fill="none" stroke="rgb(115, 161, 191)" stroke-width="1" d="M1344.5000120475888,146.50000339001417V163.50000339001417L1352.5000120475888,163.50000339001417"></path><path id="kity_path_176" fill="none" stroke="rgb(115, 161, 191)" stroke-width="1" d="M68.50001204758883,198.50000339001417V215.50000339001417L76.50001204758883,215.50000339001417"></path><path id="kity_path_184" fill="none" stroke="rgb(115, 161, 191)" stroke-width="1" d="M342.5000120475888,116.50000339001417V281.5000033900142L350.5000120475888,281.5000033900142"></path><path id="kity_path_200" fill="none" stroke="rgb(115, 161, 191)" stroke-width="1" d="M370.5000120475888,172.50000339001417V189.50000339001417L378.5000120475888,189.50000339001417"></path><path id="kity_path_208" fill="none" stroke="rgb(115, 161, 191)" stroke-width="1" d="M68.50001204758883,276.5000033900142V293.5000033900142L76.50001204758883,293.5000033900142"></path><path id="kity_path_224" fill="none" stroke="rgb(115, 161, 191)" stroke-width="1" d="M40.500012047588825,116.50000339001417V363.5000033900142L48.500012047588825,363.5000033900142"></path><path id="kity_path_232" fill="none" stroke="rgb(115, 161, 191)" stroke-width="1" d="M686.5000120475888,146.50000339001417V163.50000339001417L694.5000120475888,163.50000339001417"></path><path id="kity_path_240" fill="none" stroke="rgb(115, 161, 191)" stroke-width="1" d="M1026.5000120475888,146.50000339001417V163.50000339001417L1034.5000120475888,163.50000339001417"></path><path id="kity_path_248" fill="none" stroke="rgb(115, 161, 191)" stroke-width="1" d="M1026.5000120475888,146.50000339001417V233.50000339001417L1034.5000120475888,233.50000339001417"></path><path id="kity_path_264" fill="none" stroke="rgb(115, 161, 191)" stroke-width="1" d="M686.5000120475888,242.50000339001417V259.5000033900142L694.5000120475888,259.5000033900142"></path><path id="kity_path_272" fill="none" stroke="rgb(115, 161, 191)" stroke-width="1" d="M1344.5000120475888,224.50000339001417V241.50000339001417L1352.5000120475888,241.50000339001417"></path><path id="kity_path_280" fill="none" stroke="rgb(115, 161, 191)" stroke-width="1" d="M1344.5000120475888,224.50000339001417V293.5000033900142L1352.5000120475888,293.5000033900142"></path><path id="kity_path_288" fill="none" stroke="rgb(115, 161, 191)" stroke-width="1" d="M1344.5000120475888,354.5000033900142V371.5000033900142L1352.5000120475888,371.5000033900142"></path><path id="kity_path_312" fill="none" stroke="rgb(115, 161, 191)" stroke-width="1" d="M1026.5000120475888,312.5000033900142V329.5000033900142L1034.5000120475888,329.5000033900142"></path><path id="kity_path_320" fill="none" stroke="rgb(115, 161, 191)" stroke-width="1" d="M40.500012047588825,116.50000339001417V137.50000339001417L48.500012047588825,137.50000339001417"></path><path id="kity_path_328" fill="none" stroke="rgb(115, 161, 191)" stroke-width="1" d="M68.50001204758883,146.50000339001417V163.50000339001417L76.50001204758883,163.50000339001417"></path><path id="kity_path_336" fill="none" stroke="rgb(115, 161, 191)" stroke-width="1" d="M96.50001204758883,224.50000339001417V241.50000339001417L104.50001204758883,241.50000339001417"></path><path id="kity_path_344" fill="none" stroke="rgb(115, 161, 191)" stroke-width="1" d="M96.50001204758883,302.5000033900142V328.5000033900142L104.50001204758883,328.5000033900142"></path><path id="kity_path_352" fill="none" stroke="rgb(115, 161, 191)" stroke-width="1" d="M398.5000120475888,198.50000339001417V224.50000339001417L406.5000120475888,224.50000339001417"></path><path id="kity_path_360" fill="none" stroke="rgb(115, 161, 191)" stroke-width="1" d="M714.5000120475888,172.50000339001417V198.50000339001417L722.5000120475888,198.50000339001417"></path><path id="kity_path_371" fill="none" stroke="rgb(115, 161, 191)" stroke-width="1" d="M714.5000120475888,268.5000033900142V294.5000033900142L722.5000120475888,294.5000033900142"></path><path id="kity_path_380" fill="none" stroke="rgb(115, 161, 191)" stroke-width="1" d="M1054.5000120475888,172.50000339001417V198.50000339001417L1062.5000120475888,198.50000339001417"></path><path id="kity_path_389" fill="none" stroke="rgb(115, 161, 191)" stroke-width="1" d="M1054.5000120475888,242.50000339001417V268.5000033900142L1062.5000120475888,268.5000033900142"></path><path id="kity_path_398" fill="none" stroke="rgb(115, 161, 191)" stroke-width="1" d="M1054.5000120475888,338.5000033900142V364.5000033900142L1062.5000120475888,364.5000033900142"></path><path id="kity_path_407" fill="none" stroke="rgb(115, 161, 191)" stroke-width="1" d="M1372.5000120475888,172.50000339001417V189.50000339001417L1380.5000120475888,189.50000339001417"></path><path id="kity_path_415" fill="none" stroke="rgb(115, 161, 191)" stroke-width="1" d="M1372.5000120475888,250.50000339001417V267.5000033900142L1380.5000120475888,267.5000033900142"></path><path id="kity_path_423" fill="none" stroke="rgb(115, 161, 191)" stroke-width="1" d="M1372.5000120475888,302.5000033900142V319.5000033900142L1380.5000120475888,319.5000033900142"></path><path id="kity_path_431" fill="none" stroke="rgb(115, 161, 191)" stroke-width="1" d="M1372.5000120475888,380.5000033900142V397.5000033900142L1380.5000120475888,397.5000033900142"></path></g><g id="minder_node1"><path id="node_outline1" fill="rgb(115, 161, 191)" stroke="rgb(115, 161, 191)" d="M536.5000120475888,20.50000339001417h325a5,5,0,0,1,5,5v42a5,5,0,0,1,-5,5h-325a5,5,0,0,1,-5,-5v-42a5,5,0,0,1,5,-5z" stroke-width="3"></path><g id="node_text1" fill="white"><text id="kity_text_22" text-rendering="inherit" font-size="16" dy=".8em" y="24.100003354251385" x="543.5000120475888">科技、娱乐与设计</text><text id="kity_text_94" text-rendering="inherit" font-size="16" dy=".8em" y="48.100003354251385" x="543.5000120475888">https://leeyukyup.github.io/TED/TED.svg</text></g></g><g id="kity_g_14" display="none"><path id="kity_path_15" fill="rgba(0, 92, 153, 0.5)" stroke="none" d="M307.5000120475888,171.50000339001417h57v15h-57z"></path><path id="kity_path_16" fill="none" stroke="rgb(0, 76, 128)" d="M307.5000120475888,186.50000339001417L364.5000120475888,186.50000339001417" stroke-width="1"></path></g><g id="minder_node2"><g id="node_expander3" style="cursor: pointer;"><path id="kity_path_118" fill="white" stroke="gray" d="M68.50000488013029,83.50000394135714A6,6,0,1,1,56.50000488013029,83.50000394135714A6,6,0,1,1,68.50000488013029,83.50000394135714"></path><path id="kity_path_119" fill="none" stroke="gray" d="M58.00000488013029,83.50000394135714L67.00000488013029,83.50000394135714"></path></g><path id="node_outline4" fill="#73a1bf" stroke="rgb(115, 161, 191)" d="M23.500004552304745,90.50000423938036h78a3,3,0,0,1,3,3v20a3,3,0,0,1,-3,3h-78a3,3,0,0,1,-3,-3v-20a3,3,0,0,1,3,-3z" stroke-width="1"></path><g id="node_text4" fill="#ffffff"><text id="kity_text_67" text-rendering="inherit" font-size="14" dy=".8em" y="94.40000420808792" x="40.500004552304745">大数据</text></g></g><g id="minder_node3"><g id="node_expander1" style="cursor: pointer;"><path id="kity_path_112" fill="white" stroke="gray" d="M48.50000458210707,189.50000552088022A6,6,0,1,1,36.50000458210707,189.50000552088022A6,6,0,1,1,48.50000458210707,189.50000552088022"></path><path id="kity_path_113" fill="none" stroke="gray" d="M38.00000458210707,189.50000552088022L47.00000458210707,189.50000552088022"></path></g><path id="node_outline2" fill="#004080" stroke="none" d="M53.50000474601984,180.50000552088022h37a5,5,0,0,1,5,5v8a5,5,0,0,1,-5,5h-37a5,5,0,0,1,-5,-5v-8a5,5,0,0,1,5,-5z" stroke-width="3"></path><g id="node_text2" fill="#ffffff"><text id="kity_text_63" text-rendering="inherit" font-size="12" dy=".8em" y="181.70000549405813" x="53.50000474601984">区块链</text></g></g><g id="minder_node4"><g id="node_expander2" style="cursor: pointer;"><path id="kity_path_115" fill="white" stroke="gray" d="M48.50000458210707,267.5000066831708A6,6,0,1,1,36.50000458210707,267.5000066831708A6,6,0,1,1,48.50000458210707,267.5000066831708"></path><path id="kity_path_116" fill="none" stroke="gray" d="M38.00000458210707,267.5000066831708L47.00000458210707,267.5000066831708"></path></g><path id="node_outline3" fill="#004080" stroke="none" d="M53.50000474601984,258.5000066831708h50a5,5,0,0,1,5,5v8a5,5,0,0,1,-5,5h-50a5,5,0,0,1,-5,-5v-8a5,5,0,0,1,5,-5z" stroke-width="3"></path><g id="node_text3" fill="#ffffff"><text id="kity_text_65" text-rendering="inherit" font-size="12" dy=".8em" y="259.7000066563487" x="53.50000474601984">信息气泡</text></g></g><g id="minder_node5"><g id="node_expander6" style="cursor: pointer;"><path id="kity_path_127" fill="white" stroke="gray" d="M377.0000094771385,83.50000394135714A6,6,0,1,1,365.0000094771385,83.50000394135714A6,6,0,1,1,377.0000094771385,83.50000394135714"></path><path id="kity_path_128" fill="none" stroke="gray" d="M366.5000094771385,83.50000394135714L375.5000094771385,83.50000394135714"></path></g><path id="node_outline7" fill="#73a1bf" stroke="rgb(115, 161, 191)" d="M325.5000090524554,90.50000423938036h91a3,3,0,0,1,3,3v20a3,3,0,0,1,-3,3h-91a3,3,0,0,1,-3,-3v-20a3,3,0,0,1,3,-3z" stroke-width="1"></path><g id="node_text7" fill="#ffffff"><text id="kity_text_73" text-rendering="inherit" font-size="14" dy=".8em" y="94.40000420808792" x="342.5000090524554">人工智能</text></g></g><g id="minder_node6"><g id="node_expander4" style="cursor: pointer;" display="none"><path id="kity_path_121" fill="white" stroke="gray" d="M350.50000908225775,137.50000474601984A6,6,0,1,1,338.50000908225775,137.50000474601984A6,6,0,1,1,350.50000908225775,137.50000474601984"></path><path id="kity_path_122" fill="none" stroke="gray"></path></g><path id="node_outline5" fill="#004080" stroke="none" d="M355.5000092461705,128.50000474601984h50a5,5,0,0,1,5,5v8a5,5,0,0,1,-5,5h-50a5,5,0,0,1,-5,-5v-8a5,5,0,0,1,5,-5z" stroke-width="3"></path><g id="node_text5" fill="#ffffff"><text id="kity_text_69" text-rendering="inherit" font-size="12" dy=".8em" y="129.70000471919775" x="355.5000092461705">道德底线</text></g></g><g id="minder_node7"><g id="node_expander5" style="cursor: pointer;"><path id="kity_path_124" fill="white" stroke="gray" d="M350.50000908225775,163.50000513345003A6,6,0,1,1,338.50000908225775,163.50000513345003A6,6,0,1,1,350.50000908225775,163.50000513345003"></path><path id="kity_path_125" fill="none" stroke="gray" d="M340.00000908225775,163.50000513345003L349.00000908225775,163.50000513345003"></path></g><path id="node_outline6" fill="#004080" stroke="none" d="M355.5000092461705,154.50000513345003h50a5,5,0,0,1,5,5v8a5,5,0,0,1,-5,5h-50a5,5,0,0,1,-5,-5v-8a5,5,0,0,1,5,-5z" stroke-width="3"></path><g id="node_text6" fill="#ffffff"><text id="kity_text_71" text-rendering="inherit" font-size="12" dy=".8em" y="155.70000510662794" x="355.5000092461705">应对措施</text></g></g><g id="minder_node8"><g id="node_expander9" style="cursor: pointer;"><path id="kity_path_136" fill="white" stroke="gray" d="M693.500014193356,83.50000394135714A6,6,0,1,1,681.500014193356,83.50000394135714A6,6,0,1,1,693.500014193356,83.50000394135714"></path><path id="kity_path_137" fill="none" stroke="gray" d="M683.000014193356,83.50000394135714L692.000014193356,83.50000394135714"></path></g><path id="node_outline10" fill="#73a1bf" stroke="rgb(115, 161, 191)" d="M641.5000137612224,90.50000423938036h92a3,3,0,0,1,3,3v20a3,3,0,0,1,-3,3h-92a3,3,0,0,1,-3,-3v-20a3,3,0,0,1,3,-3z" stroke-width="1"></path><g id="node_text10" fill="#ffffff"><text id="kity_text_79" text-rendering="inherit" font-size="14" dy=".8em" y="94.40000420808792" x="658.5000137612224">科技变化</text></g></g><g id="minder_node9"><g id="node_expander7" style="cursor: pointer;"><path id="kity_path_130" fill="white" stroke="gray" d="M666.5000137910247,137.50000474601984A6,6,0,1,1,654.5000137910247,137.50000474601984A6,6,0,1,1,666.5000137910247,137.50000474601984"></path><path id="kity_path_131" fill="none" stroke="gray" d="M656.0000137910247,137.50000474601984L665.0000137910247,137.50000474601984"></path></g><path id="node_outline8" fill="#004080" stroke="none" d="M671.5000139549375,128.50000474601984h50a5,5,0,0,1,5,5v8a5,5,0,0,1,-5,5h-50a5,5,0,0,1,-5,-5v-8a5,5,0,0,1,5,-5z" stroke-width="3"></path><g id="node_text8" fill="#ffffff"><text id="kity_text_75" text-rendering="inherit" font-size="12" dy=".8em" y="129.70000471919775" x="671.5000139549375">科技成瘾</text></g></g><g id="minder_node10"><g id="node_expander8" style="cursor: pointer;"><path id="kity_path_133" fill="white" stroke="gray" d="M666.5000137910247,233.50000617653131A6,6,0,1,1,654.5000137910247,233.50000617653131A6,6,0,1,1,666.5000137910247,233.50000617653131"></path><path id="kity_path_134" fill="none" stroke="gray" d="M656.0000137910247,233.50000617653131L665.0000137910247,233.50000617653131"></path></g><path id="node_outline9" fill="#004080" stroke="none" d="M671.5000139549375,224.50000617653131h26a5,5,0,0,1,5,5v8a5,5,0,0,1,-5,5h-26a5,5,0,0,1,-5,-5v-8a5,5,0,0,1,5,-5z" stroke-width="3"></path><g id="node_text9" fill="#ffffff"><text id="kity_text_77" text-rendering="inherit" font-size="12" dy=".8em" y="225.70000614970922" x="671.5000139549375">编程</text></g></g><g id="minder_node11"><g id="node_expander12" style="cursor: pointer;"><path id="kity_path_145" fill="white" stroke="gray" d="M1040.0000193566084,83.50000394135714A6,6,0,1,1,1028.0000193566084,83.50000394135714A6,6,0,1,1,1040.0000193566084,83.50000394135714"></path><path id="kity_path_146" fill="none" stroke="gray" d="M1029.5000193566084,83.50000394135714L1038.5000193566084,83.50000394135714"></path></g><path id="node_outline13" fill="#73a1bf" stroke="rgb(115, 161, 191)" d="M981.5000188276172,90.50000423938036h105a3,3,0,0,1,3,3v20a3,3,0,0,1,-3,3h-105a3,3,0,0,1,-3,-3v-20a3,3,0,0,1,3,-3z" stroke-width="1"></path><g id="node_text13" fill="#ffffff"><text id="kity_text_85" text-rendering="inherit" font-size="14" dy=".8em" y="94.40000420808792" x="998.5000188276172">情感化设计</text></g></g><g id="minder_node12"><g id="node_expander10" style="cursor: pointer;"><path id="kity_path_139" fill="white" stroke="gray" d="M1006.5000188574195,137.50000474601984A6,6,0,1,1,994.5000188574195,137.50000474601984A6,6,0,1,1,1006.5000188574195,137.50000474601984"></path><path id="kity_path_140" fill="none" stroke="gray" d="M996.0000188574195,137.50000474601984L1005.0000188574195,137.50000474601984"></path></g><path id="node_outline11" fill="#004080" stroke="none" d="M1011.5000190213323,128.50000474601984h49a5,5,0,0,1,5,5v8a5,5,0,0,1,-5,5h-49a5,5,0,0,1,-5,-5v-8a5,5,0,0,1,5,-5z" stroke-width="3"></path><g id="node_text11" fill="#ffffff"><text id="kity_text_81" text-rendering="inherit" font-size="12" dy=".8em" y="129.70000471919775" x="1011.5000190213323">幽默设计</text></g></g><g id="minder_node13"><g id="node_expander11" style="cursor: pointer;"><path id="kity_path_142" fill="white" stroke="gray" d="M1006.5000188574195,303.5000072196126A6,6,0,1,1,994.5000188574195,303.5000072196126A6,6,0,1,1,1006.5000188574195,303.5000072196126"></path><path id="kity_path_143" fill="none" stroke="gray" d="M996.0000188574195,303.5000072196126L1005.0000188574195,303.5000072196126"></path></g><path id="node_outline12" fill="#004080" stroke="none" d="M1011.5000190213323,294.5000072196126h61a5,5,0,0,1,5,5v8a5,5,0,0,1,-5,5h-61a5,5,0,0,1,-5,-5v-8a5,5,0,0,1,5,-5z" stroke-width="3"></path><g id="node_text12" fill="#ffffff"><text id="kity_text_83" text-rendering="inherit" font-size="12" dy=".8em" y="295.7000071927905" x="1011.5000190213323">积极心理学</text></g></g><g id="minder_node14"><g id="node_expander16" style="cursor: pointer;"><path id="kity_path_157" fill="white" stroke="gray" d="M1343.5000238791108,83.50000394135714A6,6,0,1,1,1331.5000238791108,83.50000394135714A6,6,0,1,1,1343.5000238791108,83.50000394135714"></path><path id="kity_path_158" fill="none" stroke="gray" d="M1333.0000238791108,83.50000394135714L1342.0000238791108,83.50000394135714"></path></g><path id="node_outline17" fill="#73a1bf" stroke="rgb(115, 161, 191)" d="M1299.5000235661864,90.50000423938036h76a3,3,0,0,1,3,3v20a3,3,0,0,1,-3,3h-76a3,3,0,0,1,-3,-3v-20a3,3,0,0,1,3,-3z" stroke-width="1"></path><g id="node_text17" fill="#ffffff"><text id="kity_text_93" text-rendering="inherit" font-size="14" dy=".8em" y="94.40000420808792" x="1316.5000235661864">互联网</text></g></g><g id="minder_node15"><g id="node_expander13" style="cursor: pointer;"><path id="kity_path_148" fill="white" stroke="gray" d="M1324.5000235959888,137.50000474601984A6,6,0,1,1,1312.5000235959888,137.50000474601984A6,6,0,1,1,1324.5000235959888,137.50000474601984"></path><path id="kity_path_149" fill="none" stroke="gray" d="M1314.0000235959888,137.50000474601984L1323.0000235959888,137.50000474601984"></path></g><path id="node_outline14" fill="#004080" stroke="none" d="M1329.5000237599015,128.50000474601984h48a5,5,0,0,1,5,5v8a5,5,0,0,1,-5,5h-48a5,5,0,0,1,-5,-5v-8a5,5,0,0,1,5,-5z" stroke-width="3"></path><g id="node_text14" fill="#ffffff"><text id="kity_text_87" text-rendering="inherit" font-size="12" dy=".8em" y="129.70000471919775" x="1329.5000237599015">网络行为</text></g></g><g id="minder_node16"><g id="node_expander14" style="cursor: pointer;"><path id="kity_path_151" fill="white" stroke="gray" d="M1324.5000235959888,215.5000059083104A6,6,0,1,1,1312.5000235959888,215.5000059083104A6,6,0,1,1,1324.5000235959888,215.5000059083104"></path><path id="kity_path_152" fill="none" stroke="gray" d="M1314.0000235959888,215.5000059083104L1323.0000235959888,215.5000059083104"></path></g><path id="node_outline15" fill="#004080" stroke="none" d="M1329.5000237599015,206.5000059083104h61a5,5,0,0,1,5,5v8a5,5,0,0,1,-5,5h-61a5,5,0,0,1,-5,-5v-8a5,5,0,0,1,5,-5z" stroke-width="3"></path><g id="node_text15" fill="#ffffff"><text id="kity_text_89" text-rendering="inherit" font-size="12" dy=".8em" y="207.70000588148832" x="1329.5000237599015">平台与开放</text></g></g><g id="minder_node17"><g id="node_expander15" style="cursor: pointer;"><path id="kity_path_154" fill="white" stroke="gray" d="M1324.5000235959888,345.50000784546137A6,6,0,1,1,1312.5000235959888,345.50000784546137A6,6,0,1,1,1324.5000235959888,345.50000784546137"></path><path id="kity_path_155" fill="none" stroke="gray" d="M1314.0000235959888,345.50000784546137L1323.0000235959888,345.50000784546137"></path></g><path id="node_outline16" fill="#004080" stroke="none" d="M1329.5000237599015,336.50000784546137h25a5,5,0,0,1,5,5v8a5,5,0,0,1,-5,5h-25a5,5,0,0,1,-5,-5v-8a5,5,0,0,1,5,-5z" stroke-width="3"></path><g id="node_text16" fill="#ffffff"><text id="kity_text_91" text-rendering="inherit" font-size="12" dy=".8em" y="337.7000078186393" x="1329.5000237599015">情绪</text></g></g><g id="minder_node19"><g id="node_expander18" style="cursor: pointer;"><path id="kity_path_173" fill="white" stroke="gray" d="M1352.5000240132213,163.50000513345003A6,6,0,1,1,1340.5000240132213,163.50000513345003A6,6,0,1,1,1352.5000240132213,163.50000513345003"></path><path id="kity_path_174" fill="none" stroke="gray" d="M1342.0000240132213,163.50000513345003L1351.0000240132213,163.50000513345003"></path></g><path id="node_outline19" fill="none" stroke="none" d="M1357.500024177134,154.50000513345003h156a5,5,0,0,1,5,5v8a5,5,0,0,1,-5,5h-156a5,5,0,0,1,-5,-5v-8a5,5,0,0,1,5,-5z" stroke-width="3"></path><g id="node_text19" fill="black"><text id="kity_text_170" text-rendering="inherit" font-size="12" dy=".8em" y="155.70000510662794" x="1357.500024177134">网络行为体现了社会性别认知</text></g></g><g id="minder_node20"><g id="node_expander19" style="cursor: pointer;"><path id="kity_path_181" fill="white" stroke="gray" d="M76.50000499933958,215.5000059083104A6,6,0,1,1,64.50000499933958,215.5000059083104A6,6,0,1,1,76.50000499933958,215.5000059083104"></path><path id="kity_path_182" fill="none" stroke="gray" d="M66.00000499933958,215.5000059083104L75.00000499933958,215.5000059083104"></path></g><path id="node_outline20" fill="none" stroke="none" d="M81.50000516325235,206.5000059083104h192a5,5,0,0,1,5,5v8a5,5,0,0,1,-5,5h-192a5,5,0,0,1,-5,-5v-8a5,5,0,0,1,5,-5z" stroke-width="3"></path><g id="node_text20" fill="black"><text id="kity_text_178" text-rendering="inherit" font-size="12" dy=".8em" y="207.70000588148832" x="81.50000516325235">区块链一定程度上影响了金钱与贸易</text></g></g><g id="minder_node21" opacity="1"><g id="node_expander20" style="cursor: pointer;" display="none"><path id="kity_path_189" fill="white" stroke="gray" d="M350.50000908225775,281.50000689178705A6,6,0,1,1,338.50000908225775,281.50000689178705A6,6,0,1,1,350.50000908225775,281.50000689178705"></path><path id="kity_path_190" fill="none" stroke="gray"></path></g><path id="node_outline21" fill="#004080" stroke="none" d="M355.5000092461705,272.50000689178705h50a5,5,0,0,1,5,5v8a5,5,0,0,1,-5,5h-50a5,5,0,0,1,-5,-5v-8a5,5,0,0,1,5,-5z" stroke-width="3"></path><g id="node_text21" fill="white"><text id="kity_text_186" text-rendering="inherit" font-size="12" dy=".8em" y="273.70000686496496" x="355.5000092461705">人机合作</text></g></g><g id="minder_node23"><g id="node_expander22" style="cursor: pointer;"><path id="kity_path_205" fill="white" stroke="gray" d="M378.50000949949026,189.50000552088022A6,6,0,1,1,366.50000949949026,189.50000552088022A6,6,0,1,1,378.50000949949026,189.50000552088022"></path><path id="kity_path_206" fill="none" stroke="gray" d="M368.00000949949026,189.50000552088022L377.00000949949026,189.50000552088022"></path></g><path id="node_outline23" fill="none" stroke="none" d="M383.50000966340303,180.50000552088022h170a5,5,0,0,1,5,5v8a5,5,0,0,1,-5,5h-170a5,5,0,0,1,-5,-5v-8a5,5,0,0,1,5,-5z" stroke-width="3"></path><g id="node_text23" fill="black"><text id="kity_text_202" text-rendering="inherit" font-size="12" dy=".8em" y="181.70000549405813" x="383.50000966340303">数据行善可以防止数据外流问题</text></g></g><g id="minder_node24"><g id="node_expander23" style="cursor: pointer;"><path id="kity_path_213" fill="white" stroke="gray" d="M76.50000499933958,293.500007070601A6,6,0,1,1,64.50000499933958,293.500007070601A6,6,0,1,1,76.50000499933958,293.500007070601"></path><path id="kity_path_214" fill="none" stroke="gray" d="M66.00000499933958,293.500007070601L75.00000499933958,293.500007070601"></path></g><path id="node_outline24" fill="none" stroke="none" d="M81.50000516325235,284.500007070601h86a5,5,0,0,1,5,5v8a5,5,0,0,1,-5,5h-86a5,5,0,0,1,-5,-5v-8a5,5,0,0,1,5,-5z" stroke-width="3"></path><g id="node_text24" fill="black"><text id="kity_text_210" text-rendering="inherit" font-size="12" dy=".8em" y="285.7000070437789" x="81.50000516325235">数据具有偏向性</text></g></g><g id="minder_node26"><g id="node_expander25" style="cursor: pointer;" display="none"><path id="kity_path_229" fill="white" stroke="gray" d="M48.50000458210707,363.50000811368227A6,6,0,1,1,36.50000458210707,363.50000811368227A6,6,0,1,1,48.50000458210707,363.50000811368227"></path><path id="kity_path_230" fill="none" stroke="gray"></path></g><path id="node_outline26" fill="#004080" stroke="none" d="M53.50000474601984,354.50000811368227h74a5,5,0,0,1,5,5v8a5,5,0,0,1,-5,5h-74a5,5,0,0,1,-5,-5v-8a5,5,0,0,1,5,-5z" stroke-width="3"></path><g id="node_text26" fill="white"><text id="kity_text_226" text-rendering="inherit" font-size="12" dy=".8em" y="355.7000080868602" x="53.50000474601984">联系的普遍性</text></g></g><g id="minder_node27"><g id="node_expander26" style="cursor: pointer;"><path id="kity_path_237" fill="white" stroke="gray" d="M694.5000142082572,163.50000513345003A6,6,0,1,1,682.5000142082572,163.50000513345003A6,6,0,1,1,694.5000142082572,163.50000513345003"></path><path id="kity_path_238" fill="none" stroke="gray" d="M684.0000142082572,163.50000513345003L693.0000142082572,163.50000513345003"></path></g><path id="node_outline27" fill="none" stroke="none" d="M699.50001437217,154.50000513345003h121a5,5,0,0,1,5,5v8a5,5,0,0,1,-5,5h-121a5,5,0,0,1,-5,-5v-8a5,5,0,0,1,5,-5z" stroke-width="3"></path><g id="node_text27" fill="black"><text id="kity_text_234" text-rendering="inherit" font-size="12" dy=".8em" y="155.70000510662794" x="699.50001437217">君子役物，小人役于物</text></g></g><g id="minder_node28"><g id="node_expander27" style="cursor: pointer;"><path id="kity_path_245" fill="white" stroke="gray" d="M1034.500019274652,163.50000513345003A6,6,0,1,1,1022.500019274652,163.50000513345003A6,6,0,1,1,1034.500019274652,163.50000513345003"></path><path id="kity_path_246" fill="none" stroke="gray" d="M1024.000019274652,163.50000513345003L1033.000019274652,163.50000513345003"></path></g><path id="node_outline28" fill="none" stroke="none" d="M1039.5000194385648,154.50000513345003h120a5,5,0,0,1,5,5v8a5,5,0,0,1,-5,5h-120a5,5,0,0,1,-5,-5v-8a5,5,0,0,1,5,-5z" stroke-width="3"></path><g id="node_text28" fill="black"><text id="kity_text_242" text-rendering="inherit" font-size="12" dy=".8em" y="155.70000510662794" x="1039.5000194385648">幽默中也带有逻辑思考</text></g></g><g id="minder_node29"><g id="node_expander28" style="cursor: pointer;"><path id="kity_path_253" fill="white" stroke="gray" d="M1034.500019274652,233.50000617653131A6,6,0,1,1,1022.500019274652,233.50000617653131A6,6,0,1,1,1034.500019274652,233.50000617653131"></path><path id="kity_path_254" fill="none" stroke="gray" d="M1024.000019274652,233.50000617653131L1033.000019274652,233.50000617653131"></path></g><path id="node_outline29" fill="none" stroke="none" d="M1039.5000194385648,224.50000617653131h73a5,5,0,0,1,5,5v8a5,5,0,0,1,-5,5h-73a5,5,0,0,1,-5,-5v-8a5,5,0,0,1,5,-5z" stroke-width="3"></path><g id="node_text29" fill="black"><text id="kity_text_250" text-rendering="inherit" font-size="12" dy=".8em" y="225.70000614970922" x="1039.5000194385648">幽默更有力量</text></g></g><g id="minder_node31"><g id="node_expander30" style="cursor: pointer;"><path id="kity_path_269" fill="white" stroke="gray" d="M694.5000142082572,259.5000065639615A6,6,0,1,1,682.5000142082572,259.5000065639615A6,6,0,1,1,694.5000142082572,259.5000065639615"></path><path id="kity_path_270" fill="none" stroke="gray" d="M684.0000142082572,259.5000065639615L693.0000142082572,259.5000065639615"></path></g><path id="node_outline31" fill="none" stroke="none" d="M699.50001437217,250.5000065639615h157a5,5,0,0,1,5,5v8a5,5,0,0,1,-5,5h-157a5,5,0,0,1,-5,-5v-8a5,5,0,0,1,5,-5z" stroke-width="3"></path><g id="node_text31" fill="black"><text id="kity_text_266" text-rendering="inherit" font-size="12" dy=".8em" y="251.70000653713942" x="699.50001437217">黑客编程有利于健康民主发展</text></g></g><g id="minder_node32"><g id="node_expander31" style="cursor: pointer;"><path id="kity_path_277" fill="white" stroke="gray" d="M1352.5000240132213,241.5000062957406A6,6,0,1,1,1340.5000240132213,241.5000062957406A6,6,0,1,1,1352.5000240132213,241.5000062957406"></path><path id="kity_path_278" fill="none" stroke="gray" d="M1342.0000240132213,241.5000062957406L1351.0000240132213,241.5000062957406"></path></g><path id="node_outline32" fill="none" stroke="none" d="M1357.500024177134,232.5000062957406h170a5,5,0,0,1,5,5v8a5,5,0,0,1,-5,5h-170a5,5,0,0,1,-5,-5v-8a5,5,0,0,1,5,-5z" stroke-width="3"></path><g id="node_text32" fill="black"><text id="kity_text_274" text-rendering="inherit" font-size="12" dy=".8em" y="233.70000626891851" x="1357.500024177134">人们可以自发实现网络需求满足</text></g></g><g id="minder_node33"><g id="node_expander32" style="cursor: pointer;"><path id="kity_path_285" fill="white" stroke="gray" d="M1352.5000240132213,293.500007070601A6,6,0,1,1,1340.5000240132213,293.500007070601A6,6,0,1,1,1352.5000240132213,293.500007070601"></path><path id="kity_path_286" fill="none" stroke="gray" d="M1342.0000240132213,293.500007070601L1351.0000240132213,293.500007070601"></path></g><path id="node_outline33" fill="none" stroke="none" d="M1357.500024177134,284.500007070601h121a5,5,0,0,1,5,5v8a5,5,0,0,1,-5,5h-121a5,5,0,0,1,-5,-5v-8a5,5,0,0,1,5,-5z" stroke-width="3"></path><g id="node_text33" fill="black"><text id="kity_text_282" text-rendering="inherit" font-size="12" dy=".8em" y="285.7000070437789" x="1357.500024177134">科技信仰影响我们情绪</text></g></g><g id="minder_node34"><g id="node_expander33" style="cursor: pointer;"><path id="kity_path_293" fill="white" stroke="gray" d="M1352.5000240132213,371.50000823289156A6,6,0,1,1,1340.5000240132213,371.50000823289156A6,6,0,1,1,1352.5000240132213,371.50000823289156"></path><path id="kity_path_294" fill="none" stroke="gray" d="M1342.0000240132213,371.50000823289156L1351.0000240132213,371.50000823289156"></path></g><path id="node_outline34" fill="none" stroke="none" d="M1357.500024177134,362.50000823289156h241a5,5,0,0,1,5,5v8a5,5,0,0,1,-5,5h-241a5,5,0,0,1,-5,-5v-8a5,5,0,0,1,5,-5z" stroke-width="3"></path><g id="node_text34" fill="black"><text id="kity_text_290" text-rendering="inherit" font-size="12" dy=".8em" y="363.70000820606947" x="1357.500024177134">情绪是你大脑根据人生经验在当下建立的猜测</text></g></g><g id="minder_node37"><g id="node_expander36" style="cursor: pointer;"><path id="kity_path_317" fill="white" stroke="gray" d="M1034.500019274652,329.5000076070428A6,6,0,1,1,1022.500019274652,329.5000076070428A6,6,0,1,1,1034.500019274652,329.5000076070428"></path><path id="kity_path_318" fill="none" stroke="gray" d="M1024.000019274652,329.5000076070428L1033.000019274652,329.5000076070428"></path></g><path id="node_outline37" fill="none" stroke="none" d="M1039.5000194385648,320.5000076070428h158a5,5,0,0,1,5,5v8a5,5,0,0,1,-5,5h-158a5,5,0,0,1,-5,-5v-8a5,5,0,0,1,5,-5z" stroke-width="3"></path><g id="node_text37" fill="black"><text id="kity_text_314" text-rendering="inherit" font-size="12" dy=".8em" y="321.7000075802207" x="1039.5000194385648">积极心理学有利于获得幸福感</text></g></g><g id="minder_node38" opacity="1"><g id="node_expander37" style="cursor: pointer;"><path id="kity_path_325" fill="white" stroke="gray" d="M48.50000458210707,137.50000474601984A6,6,0,1,1,36.50000458210707,137.50000474601984A6,6,0,1,1,48.50000458210707,137.50000474601984"></path><path id="kity_path_326" fill="none" stroke="gray" d="M38.00000458210707,137.50000474601984L47.00000458210707,137.50000474601984"></path></g><path id="node_outline38" fill="none" stroke="none" d="M53.50000474601984,128.50000474601984h170a5,5,0,0,1,5,5v8a5,5,0,0,1,-5,5h-170a5,5,0,0,1,-5,-5v-8a5,5,0,0,1,5,-5z" stroke-width="3"></path><g id="node_text38" fill="black"><text id="kity_text_322" text-rendering="inherit" font-size="12" dy=".8em" y="129.70000471919775" x="53.50000474601984">我们的网络行为被收集为大数据</text></g></g><g id="kity_g_12" display="none"><path id="kity_path_13" fill="none" stroke="rgb(66, 94, 112)" d="M312.5000120475888,189.50000339001417h47a5,5,0,0,1,5,5v12a5,5,0,0,1,-5,5h-47a5,5,0,0,1,-5,-5v-12a5,5,0,0,1,5,-5z" stroke-width="5"></path></g><g id="minder_node39"><g id="node_expander38" style="cursor: pointer;" display="none"><path id="kity_path_333" fill="white" stroke="gray" d="M76.50000499933958,163.50000513345003A6,6,0,1,1,64.50000499933958,163.50000513345003A6,6,0,1,1,76.50000499933958,163.50000513345003"></path><path id="kity_path_334" fill="none" stroke="gray"></path></g><path id="node_outline39" fill="none" stroke="none" d="M81.50000516325235,154.50000513345003h169a5,5,0,0,1,5,5v8a5,5,0,0,1,-5,5h-169a5,5,0,0,1,-5,-5v-8a5,5,0,0,1,5,-5z" stroke-width="3"></path><g id="node_text39" fill="black"><text id="kity_text_330" text-rendering="inherit" font-size="12" dy=".8em" y="155.70000510662794" x="81.50000516325235">广告推荐你在淘宝搜索过的商品</text></g></g><g id="minder_node40"><g id="node_expander39" style="cursor: pointer;" display="none"><path id="kity_path_341" fill="white" stroke="gray" d="M104.5000054165721,241.5000062957406A6,6,0,1,1,92.5000054165721,241.5000062957406A6,6,0,1,1,104.5000054165721,241.5000062957406"></path><path id="kity_path_342" fill="none" stroke="gray"></path></g><path id="node_outline40" fill="none" stroke="none" d="M109.50000558048487,232.5000062957406h98a5,5,0,0,1,5,5v8a5,5,0,0,1,-5,5h-98a5,5,0,0,1,-5,-5v-8a5,5,0,0,1,5,-5z" stroke-width="3"></path><g id="node_text40" fill="black"><text id="kity_text_338" text-rendering="inherit" font-size="12" dy=".8em" y="233.70000626891851" x="109.50000558048487">德国比特币合法化</text></g></g><g id="minder_node41"><g id="node_expander40" style="cursor: pointer;" display="none"><path id="kity_path_349" fill="white" stroke="gray" d="M104.5000054165721,328.5000075921416A6,6,0,1,1,92.5000054165721,328.5000075921416A6,6,0,1,1,104.5000054165721,328.5000075921416"></path><path id="kity_path_350" fill="none" stroke="gray"></path></g><path id="node_outline41" fill="none" stroke="none" d="M109.50000558048487,310.5000075921416h192a5,5,0,0,1,5,5v26a5,5,0,0,1,-5,5h-192a5,5,0,0,1,-5,-5v-26a5,5,0,0,1,5,-5z" stroke-width="3"></path><g id="node_text41" fill="black"><text id="kity_text_346" text-rendering="inherit" font-size="12" dy=".8em" y="311.70000756531954" x="109.50000558048487">同网络同时使用电脑搜索同关键词，</text><text id="kity_text_368" text-rendering="inherit" font-size="12" dy=".8em" y="329.70000756531954" x="109.50000558048487">出来的网页结果不一致</text></g></g><g id="minder_node42"><g id="node_expander41" style="cursor: pointer;" display="none"><path id="kity_path_357" fill="white" stroke="gray" d="M406.5000099167228,224.50000604242086A6,6,0,1,1,394.5000099167228,224.50000604242086A6,6,0,1,1,406.5000099167228,224.50000604242086"></path><path id="kity_path_358" fill="none" stroke="gray"></path></g><path id="node_outline42" fill="none" stroke="none" d="M411.50001008063555,206.50000604242086h206a5,5,0,0,1,5,5v26a5,5,0,0,1,-5,5h-206a5,5,0,0,1,-5,-5v-26a5,5,0,0,1,5,-5z" stroke-width="3"></path><g id="node_text42" fill="black"><text id="kity_text_354" text-rendering="inherit" font-size="12" dy=".8em" y="207.70000601559877" x="411.50001008063555">分享医疗数据，可以让更多的人去解决</text><text id="kity_text_369" text-rendering="inherit" font-size="12" dy=".8em" y="225.70000601559877" x="411.50001008063555">医疗问题</text></g></g><g id="minder_node43"><g id="node_expander42" style="cursor: pointer;" display="none"><path id="kity_path_365" fill="white" stroke="gray" d="M722.5000146254897,198.50000565499067A6,6,0,1,1,710.5000146254897,198.50000565499067A6,6,0,1,1,722.5000146254897,198.50000565499067"></path><path id="kity_path_366" fill="none" stroke="gray"></path></g><path id="node_outline43" fill="none" stroke="none" d="M727.5000147894025,180.50000565499067h230a5,5,0,0,1,5,5v26a5,5,0,0,1,-5,5h-230a5,5,0,0,1,-5,-5v-26a5,5,0,0,1,5,-5z" stroke-width="3"></path><g id="node_text43" fill="black"><text id="kity_text_362" text-rendering="inherit" font-size="12" dy=".8em" y="181.70000562816858" x="727.5000147894025">消费媒体没有给我们呢“停止信号”，君子</text><text id="kity_text_367" text-rendering="inherit" font-size="12" dy=".8em" y="199.70000562816858" x="727.5000147894025">可以自己选择提供下来，小人却不可以</text></g></g><g id="minder_node44"><g id="node_expander43" style="cursor: pointer;" display="none"><path id="kity_path_376" fill="white" stroke="gray" d="M722.5000146254897,294.50000708550215A6,6,0,1,1,710.5000146254897,294.50000708550215A6,6,0,1,1,722.5000146254897,294.50000708550215"></path><path id="kity_path_377" fill="none" stroke="gray"></path></g><path id="node_outline44" fill="none" stroke="none" d="M727.5000147894025,276.50000708550215h228a5,5,0,0,1,5,5v26a5,5,0,0,1,-5,5h-228a5,5,0,0,1,-5,-5v-26a5,5,0,0,1,5,-5z" stroke-width="3"></path><g id="node_text44" fill="black"><text id="kity_text_373" text-rendering="inherit" font-size="12" dy=".8em" y="277.70000705868006" x="727.5000147894025">黑客潜入政府系统，揭露政府黑幕有助于民</text><text id="kity_text_378" text-rendering="inherit" font-size="12" dy=".8em" y="295.70000705868006" x="727.5000147894025">主发展</text></g></g><g id="minder_node45"><g id="node_expander44" style="cursor: pointer;" display="none"><path id="kity_path_385" fill="white" stroke="gray" d="M1062.5000196918845,198.50000565499067A6,6,0,1,1,1050.5000196918845,198.50000565499067A6,6,0,1,1,1062.5000196918845,198.50000565499067"></path><path id="kity_path_386" fill="none" stroke="gray"></path></g><path id="node_outline45" fill="none" stroke="none" d="M1067.5000198557973,180.50000565499067h204a5,5,0,0,1,5,5v26a5,5,0,0,1,-5,5h-204a5,5,0,0,1,-5,-5v-26a5,5,0,0,1,5,-5z" stroke-width="3"></path><g id="node_text45" fill="black"><text id="kity_text_382" text-rendering="inherit" font-size="12" dy=".8em" y="181.70000562816858" x="1067.5000198557973">幽默漫画用更深刻的表达方式使人们接</text><text id="kity_text_387" text-rendering="inherit" font-size="12" dy=".8em" y="199.70000562816858" x="1067.5000198557973">受观点</text></g></g><g id="minder_node46"><g id="node_expander45" style="cursor: pointer;" display="none"><path id="kity_path_394" fill="white" stroke="gray" d="M1062.5000196918845,268.50000669807196A6,6,0,1,1,1050.5000196918845,268.50000669807196A6,6,0,1,1,1062.5000196918845,268.50000669807196"></path><path id="kity_path_395" fill="none" stroke="gray"></path></g><path id="node_outline46" fill="none" stroke="none" d="M1067.5000198557973,250.50000669807196h208a5,5,0,0,1,5,5v26a5,5,0,0,1,-5,5h-208a5,5,0,0,1,-5,-5v-26a5,5,0,0,1,5,-5z" stroke-width="3"></path><g id="node_text46" fill="black"><text id="kity_text_391" text-rendering="inherit" font-size="12" dy=".8em" y="251.70000667124987" x="1067.5000198557973">卢比·怀克丝利用幽默讲述了自己的精神</text><text id="kity_text_396" text-rendering="inherit" font-size="12" dy=".8em" y="269.70000667124987" x="1067.5000198557973">疾病，告诉人们要善待他人</text></g></g><g id="minder_node47"><g id="node_expander46" style="cursor: pointer;" display="none"><path id="kity_path_403" fill="white" stroke="gray" d="M1062.5000196918845,364.50000812858343A6,6,0,1,1,1050.5000196918845,364.50000812858343A6,6,0,1,1,1062.5000196918845,364.50000812858343"></path><path id="kity_path_404" fill="none" stroke="gray"></path></g><path id="node_outline47" fill="none" stroke="none" d="M1067.5000198557973,346.50000812858343h205a5,5,0,0,1,5,5v26a5,5,0,0,1,-5,5h-205a5,5,0,0,1,-5,-5v-26a5,5,0,0,1,5,-5z" stroke-width="3"></path><g id="node_text47" fill="black"><text id="kity_text_400" text-rendering="inherit" font-size="12" dy=".8em" y="347.70000810176134" x="1067.5000198557973">利用科技、娱乐和生活，我们可以增加</text><text id="kity_text_405" text-rendering="inherit" font-size="12" dy=".8em" y="365.70000810176134" x="1067.5000198557973">这个世界人们幸福的分量</text></g></g><g id="minder_node48"><g id="node_expander47" style="cursor: pointer;" display="none"><path id="kity_path_412" fill="white" stroke="gray" d="M1380.5000244304538,189.50000552088022A6,6,0,1,1,1368.5000244304538,189.50000552088022A6,6,0,1,1,1380.5000244304538,189.50000552088022"></path><path id="kity_path_413" fill="none" stroke="gray"></path></g><path id="node_outline48" fill="none" stroke="rgb(57, 80, 96)" d="M1385.5000245943666,180.50000552088022h157a5,5,0,0,1,5,5v8a5,5,0,0,1,-5,5h-157a5,5,0,0,1,-5,-5v-8a5,5,0,0,1,5,-5z" stroke-width="3"></path><g id="node_text48" fill="black"><text id="kity_text_409" text-rendering="inherit" font-size="12" dy=".8em" y="181.70000549405813" x="1385.5000245943666">网络女权主义者标榜女性崛起</text></g></g><g id="minder_node49"><g id="node_expander48" style="cursor: pointer;" display="none"><path id="kity_path_420" fill="white" stroke="gray" d="M1380.5000244304538,267.5000066831708A6,6,0,1,1,1368.5000244304538,267.5000066831708A6,6,0,1,1,1380.5000244304538,267.5000066831708"></path><path id="kity_path_421" fill="none" stroke="gray"></path></g><path id="node_outline49" fill="none" stroke="none" d="M1385.5000245943666,258.5000066831708h109a5,5,0,0,1,5,5v8a5,5,0,0,1,-5,5h-109a5,5,0,0,1,-5,-5v-8a5,5,0,0,1,5,-5z" stroke-width="3"></path><g id="node_text49" fill="black"><text id="kity_text_417" text-rendering="inherit" font-size="12" dy=".8em" y="259.7000066563487" x="1385.5000245943666">维基百科由网民编纂</text></g></g><g id="minder_node50"><g id="node_expander49" style="cursor: pointer;" display="none"><path id="kity_path_428" fill="white" stroke="gray" d="M1380.5000244304538,319.5000074580312A6,6,0,1,1,1368.5000244304538,319.5000074580312A6,6,0,1,1,1380.5000244304538,319.5000074580312"></path><path id="kity_path_429" fill="none" stroke="gray"></path></g><path id="node_outline50" fill="none" stroke="none" d="M1385.5000245943666,310.5000074580312h193a5,5,0,0,1,5,5v8a5,5,0,0,1,-5,5h-193a5,5,0,0,1,-5,-5v-8a5,5,0,0,1,5,-5z" stroke-width="3"></path><g id="node_text50" fill="black"><text id="kity_text_425" text-rendering="inherit" font-size="12" dy=".8em" y="311.7000074312091" x="1385.5000245943666">“苹果教徒”会让人们无限维护苹果</text></g></g><g id="minder_node51"><g id="node_expander50" style="cursor: pointer;" display="none"><path id="kity_path_436" fill="white" stroke="gray" d="M1380.5000244304538,397.50000862032175A6,6,0,1,1,1368.5000244304538,397.50000862032175A6,6,0,1,1,1380.5000244304538,397.50000862032175"></path><path id="kity_path_437" fill="none" stroke="gray"></path></g><path id="node_outline51" fill="none" stroke="none" d="M1385.5000245943666,379.50000862032175h217a5,5,0,0,1,5,5v26a5,5,0,0,1,-5,5h-217a5,5,0,0,1,-5,-5v-26a5,5,0,0,1,5,-5z" stroke-width="3"></path><g id="node_text51" fill="black"><text id="kity_text_433" text-rendering="inherit" font-size="12" dy=".8em" y="380.70000859349966" x="1385.5000245943666">当你看见一条蛇，再浮现黑白色块，你很</text><text id="kity_text_438" text-rendering="inherit" font-size="12" dy=".8em" y="398.70000859349966" x="1385.5000245943666">容易从黑白色块中想像出一条蛇</text></g></g></g></g></svg>