<svg id="kity_svg_6" xmlns="http://www.w3.org/2000/svg" xmlns:xlink="http://www.w3.org/1999/xlink" version="1.1" width="1930" height="470" style="background: rgb(251, 251, 251); visibility: visible;" viewBox="0 0 1930 470"><defs id="kity_defs_7"><linearGradient id="kity_linearGradient_17" x1="0" y1="0" x2="0" y2="1"><stop id="kity_stop_18" offset="0" stop-color="rgb(255, 255, 255)"></stop><stop id="kity_stop_19" offset="1" stop-color="rgb(204, 204, 204)"></stop></linearGradient><marker id="kity_marker_2" orient="auto" refX="6" refY="0" viewBox="-7 -7 14 14" markerWidth="7" markerHeight="7" markerUnits="userSpaceOnUse"><path id="kity_path_3" fill="rgb(115, 161, 191)" stroke="none" d="M6,0A6,6,0,1,1,-6,0A6,6,0,1,1,6,0"></path></marker></defs><g id="kity_g_8"><g id="minder1" text-rendering="optimize-speed"><g id="minder_connect_group1"><path id="kity_path_31" fill="none" stroke="rgb(115, 161, 191)" stroke-width="1" d="M883.5000114366412,72.50000474601984v10h-820.5V90.50000474601984"></path><path id="kity_path_33" fill="none" stroke="rgb(115, 161, 191)" stroke-width="1" d="M40.500011436641216,116.50000474601984V137.50000474601984L48.500011436641216,137.50000474601984"></path><path id="kity_path_35" fill="none" stroke="rgb(115, 161, 191)" stroke-width="1" d="M68.50001143664122,146.50000474601984V163.50000474601984L76.50001143664122,163.50000474601984"></path><path id="kity_path_37" fill="none" stroke="rgb(115, 161, 191)" stroke-width="1" d="M40.500011436641216,116.50000474601984V189.50000474601984L48.500011436641216,189.50000474601984"></path><path id="kity_path_39" fill="none" stroke="rgb(115, 161, 191)" stroke-width="1" d="M68.50001143664122,198.50000474601984V215.50000474601984L76.50001143664122,215.50000474601984"></path><path id="kity_path_41" fill="none" stroke="rgb(115, 161, 191)" stroke-width="1" d="M96.50001143664122,224.50000474601984V241.50000474601984L104.50001143664122,241.50000474601984"></path><path id="kity_path_43" fill="none" stroke="rgb(115, 161, 191)" stroke-width="1" d="M40.500011436641216,116.50000474601984V267.50000474601984L48.500011436641216,267.50000474601984"></path><path id="kity_path_45" fill="none" stroke="rgb(115, 161, 191)" stroke-width="1" d="M68.50001143664122,276.50000474601984V293.50000474601984L76.50001143664122,293.50000474601984"></path><path id="kity_path_47" fill="none" stroke="rgb(115, 161, 191)" stroke-width="1" d="M96.50001143664122,302.50000474601984V328.50000474601984L104.50001143664122,328.50000474601984"></path><path id="kity_path_49" fill="none" stroke="rgb(115, 161, 191)" stroke-width="1" d="M40.500011436641216,116.50000474601984V363.50000474601984L48.500011436641216,363.50000474601984"></path><path id="kity_path_51" fill="none" stroke="rgb(115, 161, 191)" stroke-width="1" d="M40.500011436641216,116.50000474601984V389.50000474601984L48.500011436641216,389.50000474601984"></path><path id="kity_path_53" fill="none" stroke="rgb(115, 161, 191)" stroke-width="1" d="M68.50001143664122,398.50000474601984V415.50000474601984L76.50001143664122,415.50000474601984"></path><path id="kity_path_55" fill="none" stroke="rgb(115, 161, 191)" stroke-width="1" d="M96.50001143664122,424.50000474601984V441.50000474601984L104.50001143664122,441.50000474601984"></path><path id="kity_path_57" fill="none" stroke="rgb(115, 161, 191)" stroke-width="1" d="M883.5000114366412,72.50000474601984v10h-500V90.50000474601984"></path><path id="kity_path_59" fill="none" stroke="rgb(115, 161, 191)" stroke-width="1" d="M354.5000114366412,116.50000474601984V137.50000474601984L362.5000114366412,137.50000474601984"></path><path id="kity_path_61" fill="none" stroke="rgb(115, 161, 191)" stroke-width="1" d="M354.5000114366412,116.50000474601984V163.50000474601984L362.5000114366412,163.50000474601984"></path><path id="kity_path_63" fill="none" stroke="rgb(115, 161, 191)" stroke-width="1" d="M382.5000114366412,172.50000474601984V189.50000474601984L390.5000114366412,189.50000474601984"></path><path id="kity_path_65" fill="none" stroke="rgb(115, 161, 191)" stroke-width="1" d="M410.5000114366412,198.50000474601984V224.50000474601984L418.5000114366412,224.50000474601984"></path><path id="kity_path_67" fill="none" stroke="rgb(115, 161, 191)" stroke-width="1" d="M354.5000114366412,116.50000474601984V281.50000474601984L362.5000114366412,281.50000474601984"></path><path id="kity_path_69" fill="none" stroke="rgb(115, 161, 191)" stroke-width="1" d="M883.5000114366412,72.50000474601984v10h-183.5V90.50000474601984"></path><path id="kity_path_71" fill="none" stroke="rgb(115, 161, 191)" stroke-width="1" d="M670.5000114366412,116.50000474601984V137.50000474601984L678.5000114366412,137.50000474601984"></path><path id="kity_path_73" fill="none" stroke="rgb(115, 161, 191)" stroke-width="1" d="M698.5000114366412,146.50000474601984V163.50000474601984L706.5000114366412,163.50000474601984"></path><path id="kity_path_75" fill="none" stroke="rgb(115, 161, 191)" stroke-width="1" d="M726.5000114366412,172.50000474601984V198.50000474601984L734.5000114366412,198.50000474601984"></path><path id="kity_path_77" fill="none" stroke="rgb(115, 161, 191)" stroke-width="1" d="M670.5000114366412,116.50000474601984V233.50000474601984L678.5000114366412,233.50000474601984"></path><path id="kity_path_79" fill="none" stroke="rgb(115, 161, 191)" stroke-width="1" d="M698.5000114366412,242.50000474601984V259.50000474601984L706.5000114366412,259.50000474601984"></path><path id="kity_path_81" fill="none" stroke="rgb(115, 161, 191)" stroke-width="1" d="M726.5000114366412,268.50000474601984V294.50000474601984L734.5000114366412,294.50000474601984"></path><path id="kity_path_83" fill="none" stroke="rgb(115, 161, 191)" stroke-width="1" d="M883.5000114366412,72.50000474601984v10h163V90.50000474601984"></path><path id="kity_path_85" fill="none" stroke="rgb(115, 161, 191)" stroke-width="1" d="M1010.5000114366412,116.50000474601984V137.50000474601984L1018.5000114366412,137.50000474601984"></path><path id="kity_path_87" fill="none" stroke="rgb(115, 161, 191)" stroke-width="1" d="M1038.5000114366412,146.50000474601984V163.50000474601984L1046.5000114366412,163.50000474601984"></path><path id="kity_path_89" fill="none" stroke="rgb(115, 161, 191)" stroke-width="1" d="M1066.5000114366412,172.50000474601984V198.50000474601984L1074.5000114366412,198.50000474601984"></path><path id="kity_path_91" fill="none" stroke="rgb(115, 161, 191)" stroke-width="1" d="M1038.5000114366412,146.50000474601984V233.50000474601984L1046.5000114366412,233.50000474601984"></path><path id="kity_path_93" fill="none" stroke="rgb(115, 161, 191)" stroke-width="1" d="M1066.5000114366412,242.50000474601984V268.50000474601984L1074.5000114366412,268.50000474601984"></path><path id="kity_path_95" fill="none" stroke="rgb(115, 161, 191)" stroke-width="1" d="M1010.5000114366412,116.50000474601984V303.50000474601984L1018.5000114366412,303.50000474601984"></path><path id="kity_path_97" fill="none" stroke="rgb(115, 161, 191)" stroke-width="1" d="M1038.5000114366412,312.50000474601984V329.50000474601984L1046.5000114366412,329.50000474601984"></path><path id="kity_path_99" fill="none" stroke="rgb(115, 161, 191)" stroke-width="1" d="M1066.5000114366412,338.50000474601984V364.50000474601984L1074.5000114366412,364.50000474601984"></path><path id="kity_path_101" fill="none" stroke="rgb(115, 161, 191)" stroke-width="1" d="M883.5000114366412,72.50000474601984v10h466.5V90.50000474601984"></path><path id="kity_path_103" fill="none" stroke="rgb(115, 161, 191)" stroke-width="1" d="M1328.5000114366412,116.50000474601984V137.50000474601984L1336.5000114366412,137.50000474601984"></path><path id="kity_path_105" fill="none" stroke="rgb(115, 161, 191)" stroke-width="1" d="M1356.5000114366412,146.50000474601984V163.50000474601984L1364.5000114366412,163.50000474601984"></path><path id="kity_path_107" fill="none" stroke="rgb(115, 161, 191)" stroke-width="1" d="M1384.5000114366412,172.50000474601984V189.50000474601984L1392.5000114366412,189.50000474601984"></path><path id="kity_path_109" fill="none" stroke="rgb(115, 161, 191)" stroke-width="1" d="M1328.5000114366412,116.50000474601984V215.50000474601984L1336.5000114366412,215.50000474601984"></path><path id="kity_path_111" fill="none" stroke="rgb(115, 161, 191)" stroke-width="1" d="M1356.5000114366412,224.50000474601984V241.50000474601984L1364.5000114366412,241.50000474601984"></path><path id="kity_path_113" fill="none" stroke="rgb(115, 161, 191)" stroke-width="1" d="M1384.5000114366412,250.50000474601984V267.50000474601984L1392.5000114366412,267.50000474601984"></path><path id="kity_path_115" fill="none" stroke="rgb(115, 161, 191)" stroke-width="1" d="M1356.5000114366412,224.50000474601984V293.50000474601984L1364.5000114366412,293.50000474601984"></path><path id="kity_path_117" fill="none" stroke="rgb(115, 161, 191)" stroke-width="1" d="M1384.5000114366412,302.50000474601984V319.50000474601984L1392.5000114366412,319.50000474601984"></path><path id="kity_path_119" fill="none" stroke="rgb(115, 161, 191)" stroke-width="1" d="M1328.5000114366412,116.50000474601984V345.50000474601984L1336.5000114366412,345.50000474601984"></path><path id="kity_path_121" fill="none" stroke="rgb(115, 161, 191)" stroke-width="1" d="M1356.5000114366412,354.50000474601984V371.50000474601984L1364.5000114366412,371.50000474601984"></path><path id="kity_path_123" fill="none" stroke="rgb(115, 161, 191)" stroke-width="1" d="M1384.5000114366412,380.50000474601984V406.50000474601984L1392.5000114366412,406.50000474601984"></path><path id="kity_path_125" fill="none" stroke="rgb(115, 161, 191)" stroke-width="1" d="M883.5000114366412,72.50000474601984v10h807.5V90.50000474601984"></path><path id="kity_path_127" fill="none" stroke="rgb(115, 161, 191)" stroke-width="1" d="M1655.5000114366412,116.50000474601984V137.50000474601984L1663.5000114366412,137.50000474601984"></path><path id="kity_path_129" fill="none" stroke="rgb(115, 161, 191)" stroke-width="1" d="M1683.5000114366412,146.50000474601984V163.50000474601984L1691.5000114366412,163.50000474601984"></path><path id="kity_path_131" fill="none" stroke="rgb(115, 161, 191)" stroke-width="1" d="M1655.5000114366412,116.50000474601984V189.50000474601984L1663.5000114366412,189.50000474601984"></path></g><g id="minder_node1"><path id="node_outline1" fill="rgb(115, 161, 191)" stroke="rgb(57, 80, 96)" d="M720.5000114366412,20.50000474601984h325a5,5,0,0,1,5,5v42a5,5,0,0,1,-5,5h-325a5,5,0,0,1,-5,-5v-42a5,5,0,0,1,5,-5z" stroke-width="3"></path><g id="node_text1" fill="white"><text id="kity_text_22" text-rendering="inherit" font-size="16" dy=".8em" y="24.100004710257053" x="727.5000114366412">科技、娱乐与设计</text><text id="kity_text_242" text-rendering="inherit" font-size="16" dy=".8em" y="48.10000471025705" x="727.5000114366412">https://leeyukyup.github.io/TED/TED.svg</text></g></g><g id="kity_g_12"><path id="kity_path_13" fill="none" stroke="none" d="M727.5000114366412,46.50000474601984h0v0h0z"></path></g><g id="kity_g_14"><path id="kity_path_15" fill="none" stroke="none" d="M727.5000114366412,46.50000474601984h0v0h0z"></path><path id="kity_path_16" fill="none" stroke="none"></path></g><g id="minder_node2"><g id="node_expander13" style="cursor: pointer;"><path id="kity_path_331" fill="white" stroke="gray" d="M68.50000152736902,83.5000052973628A6,6,0,1,1,56.50000152736902,83.5000052973628A6,6,0,1,1,68.50000152736902,83.5000052973628"></path><path id="kity_path_332" fill="none" stroke="gray" d="M58.00000152736902,83.5000052973628L67.00000152736902,83.5000052973628"></path></g><path id="node_outline14" fill="#73a1bf" stroke="rgb(115, 161, 191)" d="M23.500001199543476,90.50000559538603h78a3,3,0,0,1,3,3v20a3,3,0,0,1,-3,3h-78a3,3,0,0,1,-3,-3v-20a3,3,0,0,1,3,-3z" stroke-width="1"></path><g id="node_text14" fill="#ffffff"><text id="kity_text_158" text-rendering="inherit" font-size="14" dy=".8em" y="94.40000556409359" x="40.500001199543476">大数据</text></g></g><g id="minder_node3"><g id="node_expander2" style="cursor: pointer;"><path id="kity_path_298" fill="white" stroke="gray" d="M48.5000012293458,137.5000061020255A6,6,0,1,1,36.5000012293458,137.5000061020255A6,6,0,1,1,48.5000012293458,137.5000061020255"></path><path id="kity_path_299" fill="none" stroke="gray" d="M38.0000012293458,137.5000061020255L47.0000012293458,137.5000061020255"></path></g><path id="node_outline3" fill="none" stroke="none" d="M53.50000139325857,128.5000061020255h170a5,5,0,0,1,5,5v8a5,5,0,0,1,-5,5h-170a5,5,0,0,1,-5,-5v-8a5,5,0,0,1,5,-5z"></path><g id="node_text3" fill="black"><text id="kity_text_135" text-rendering="inherit" font-size="12" dy=".8em" y="129.70000607520342" x="53.50000139325857">我们的网络行为被收集为大数据</text></g></g><g id="minder_node4"><g id="node_expander1" display="none" style="cursor: pointer;"><path id="kity_path_295" fill="white" stroke="gray" d="M76.50000164657831,163.5000064894557A6,6,0,1,1,64.50000164657831,163.5000064894557A6,6,0,1,1,76.50000164657831,163.5000064894557"></path><path id="kity_path_296" fill="none" stroke="gray"></path></g><path id="node_outline2" fill="none" stroke="none" d="M81.50000181049109,154.5000064894557h169a5,5,0,0,1,5,5v8a5,5,0,0,1,-5,5h-169a5,5,0,0,1,-5,-5v-8a5,5,0,0,1,5,-5z"></path><g id="node_text2" fill="black"><text id="kity_text_133" text-rendering="inherit" font-size="12" dy=".8em" y="155.7000064626336" x="81.50000181049109">广告推荐你在淘宝搜索过的商品</text></g></g><g id="minder_node5"><g id="node_expander5" style="cursor: pointer;"><path id="kity_path_307" fill="white" stroke="gray" d="M48.5000012293458,189.5000068768859A6,6,0,1,1,36.5000012293458,189.5000068768859A6,6,0,1,1,48.5000012293458,189.5000068768859"></path><path id="kity_path_308" fill="none" stroke="gray" d="M38.0000012293458,189.5000068768859L47.0000012293458,189.5000068768859"></path></g><path id="node_outline6" fill="#004080" stroke="none" d="M53.50000139325857,180.5000068768859h37a5,5,0,0,1,5,5v8a5,5,0,0,1,-5,5h-37a5,5,0,0,1,-5,-5v-8a5,5,0,0,1,5,-5z"></path><g id="node_text6" fill="#ffffff"><text id="kity_text_141" text-rendering="inherit" font-size="12" dy=".8em" y="181.7000068500638" x="53.50000139325857">区块链</text></g></g><g id="minder_node6"><g id="node_expander4" style="cursor: pointer;"><path id="kity_path_304" fill="white" stroke="gray" d="M76.50000164657831,215.50000726431608A6,6,0,1,1,64.50000164657831,215.50000726431608A6,6,0,1,1,76.50000164657831,215.50000726431608"></path><path id="kity_path_305" fill="none" stroke="gray" d="M66.00000164657831,215.50000726431608L75.00000164657831,215.50000726431608"></path></g><path id="node_outline5" fill="none" stroke="none" d="M81.50000181049109,206.50000726431608h192a5,5,0,0,1,5,5v8a5,5,0,0,1,-5,5h-192a5,5,0,0,1,-5,-5v-8a5,5,0,0,1,5,-5z"></path><g id="node_text5" fill="black"><text id="kity_text_139" text-rendering="inherit" font-size="12" dy=".8em" y="207.700007237494" x="81.50000181049109">区块链一定程度上影响了金钱与贸易</text></g></g><g id="minder_node7"><g id="node_expander3" display="none" style="cursor: pointer;"><path id="kity_path_301" fill="white" stroke="gray" d="M104.50000206381083,241.50000765174627A6,6,0,1,1,92.50000206381083,241.50000765174627A6,6,0,1,1,104.50000206381083,241.50000765174627"></path><path id="kity_path_302" fill="none" stroke="gray"></path></g><path id="node_outline4" fill="none" stroke="none" d="M109.5000022277236,232.50000765174627h98a5,5,0,0,1,5,5v8a5,5,0,0,1,-5,5h-98a5,5,0,0,1,-5,-5v-8a5,5,0,0,1,5,-5z"></path><g id="node_text4" fill="black"><text id="kity_text_137" text-rendering="inherit" font-size="12" dy=".8em" y="233.70000762492418" x="109.5000022277236">德国比特币合法化</text></g></g><g id="minder_node8"><g id="node_expander8" style="cursor: pointer;"><path id="kity_path_316" fill="white" stroke="gray" d="M48.5000012293458,267.50000803917646A6,6,0,1,1,36.5000012293458,267.50000803917646A6,6,0,1,1,48.5000012293458,267.50000803917646"></path><path id="kity_path_317" fill="none" stroke="gray" d="M38.0000012293458,267.50000803917646L47.0000012293458,267.50000803917646"></path></g><path id="node_outline9" fill="#004080" stroke="none" d="M53.50000139325857,258.50000803917646h50a5,5,0,0,1,5,5v8a5,5,0,0,1,-5,5h-50a5,5,0,0,1,-5,-5v-8a5,5,0,0,1,5,-5z"></path><g id="node_text9" fill="#ffffff"><text id="kity_text_148" text-rendering="inherit" font-size="12" dy=".8em" y="259.7000080123544" x="53.50000139325857">信息气泡</text></g></g><g id="minder_node9"><g id="node_expander7" style="cursor: pointer;"><path id="kity_path_313" fill="white" stroke="gray" d="M76.50000164657831,293.50000842660666A6,6,0,1,1,64.50000164657831,293.50000842660666A6,6,0,1,1,76.50000164657831,293.50000842660666"></path><path id="kity_path_314" fill="none" stroke="gray" d="M66.00000164657831,293.50000842660666L75.00000164657831,293.50000842660666"></path></g><path id="node_outline8" fill="none" stroke="none" d="M81.50000181049109,284.50000842660666h86a5,5,0,0,1,5,5v8a5,5,0,0,1,-5,5h-86a5,5,0,0,1,-5,-5v-8a5,5,0,0,1,5,-5z"></path><g id="node_text8" fill="black"><text id="kity_text_146" text-rendering="inherit" font-size="12" dy=".8em" y="285.70000839978456" x="81.50000181049109">数据具有偏向性</text></g></g><g id="minder_node10"><g id="node_expander6" display="none" style="cursor: pointer;"><path id="kity_path_310" fill="white" stroke="gray" d="M104.50000206381083,328.5000089481473A6,6,0,1,1,92.50000206381083,328.5000089481473A6,6,0,1,1,104.50000206381083,328.5000089481473"></path><path id="kity_path_311" fill="none" stroke="gray"></path></g><path id="node_outline7" fill="none" stroke="none" d="M109.5000022277236,310.5000089481473h204a5,5,0,0,1,5,5v26a5,5,0,0,1,-5,5h-204a5,5,0,0,1,-5,-5v-26a5,5,0,0,1,5,-5z"></path><g id="node_text7" fill="black"><text id="kity_text_143" text-rendering="inherit" font-size="12" dy=".8em" y="311.7000089213252" x="109.5000022277236">同网络同时使用电脑搜索同关键词，出</text><text id="kity_text_144" text-rendering="inherit" font-size="12" dy=".8em" y="329.7000089213252" x="109.5000022277236">来的网页结果不一致</text></g></g><g id="minder_node11"><g id="node_expander9" display="none" style="cursor: pointer;"><path id="kity_path_319" fill="white" stroke="gray" d="M48.5000012293458,363.50000946968794A6,6,0,1,1,36.5000012293458,363.50000946968794A6,6,0,1,1,48.5000012293458,363.50000946968794"></path><path id="kity_path_320" fill="none" stroke="gray"></path></g><path id="node_outline10" fill="#004080" stroke="none" d="M53.50000139325857,354.50000946968794h74a5,5,0,0,1,5,5v8a5,5,0,0,1,-5,5h-74a5,5,0,0,1,-5,-5v-8a5,5,0,0,1,5,-5z"></path><g id="node_text10" fill="white"><text id="kity_text_150" text-rendering="inherit" font-size="12" dy=".8em" y="355.70000944286585" x="53.50000139325857">联系的普遍性</text></g></g><g id="minder_node12"><g id="node_expander12" style="cursor: pointer;"><path id="kity_path_328" fill="white" stroke="gray" d="M48.5000012293458,389.50000985711813A6,6,0,1,1,36.5000012293458,389.50000985711813A6,6,0,1,1,48.5000012293458,389.50000985711813"></path><path id="kity_path_329" fill="none" stroke="gray" d="M38.0000012293458,389.50000985711813L47.0000012293458,389.50000985711813"></path></g><path id="node_outline13" fill="#004080" stroke="none" d="M53.50000139325857,380.50000985711813h62a5,5,0,0,1,5,5v8a5,5,0,0,1,-5,5h-62a5,5,0,0,1,-5,-5v-8a5,5,0,0,1,5,-5z"></path><g id="node_text13" fill="white"><text id="kity_text_156" text-rendering="inherit" font-size="12" dy=".8em" y="381.70000983029604" x="53.50000139325857">信息可视化</text></g></g><g id="minder_node13"><g id="node_expander11" style="cursor: pointer;"><path id="kity_path_325" fill="white" stroke="gray" d="M76.50000164657831,415.5000102445483A6,6,0,1,1,64.50000164657831,415.5000102445483A6,6,0,1,1,76.50000164657831,415.5000102445483"></path><path id="kity_path_326" fill="none" stroke="gray" d="M66.00000164657831,415.5000102445483L75.00000164657831,415.5000102445483"></path></g><path id="node_outline12" fill="none" stroke="none" d="M81.50000181049109,406.5000102445483h134a5,5,0,0,1,5,5v8a5,5,0,0,1,-5,5h-134a5,5,0,0,1,-5,-5v-8a5,5,0,0,1,5,-5z"></path><g id="node_text12" fill="black"><text id="kity_text_154" text-rendering="inherit" font-size="12" dy=".8em" y="407.70001021772623" x="81.50000181049109">信息可视化更好传达信息</text></g></g><g id="minder_node14"><g id="node_expander10" display="none" style="cursor: pointer;"><path id="kity_path_322" fill="white" stroke="gray" d="M104.50000206381083,441.5000106319785A6,6,0,1,1,92.50000206381083,441.5000106319785A6,6,0,1,1,104.50000206381083,441.5000106319785"></path><path id="kity_path_323" fill="none" stroke="gray"></path></g><path id="node_outline11" fill="none" stroke="none" d="M109.5000022277236,432.5000106319785h193a5,5,0,0,1,5,5v8a5,5,0,0,1,-5,5h-193a5,5,0,0,1,-5,-5v-8a5,5,0,0,1,5,-5z"></path><g id="node_text11" fill="black"><text id="kity_text_152" text-rendering="inherit" font-size="12" dy=".8em" y="433.7000106051564" x="109.5000022277236">非洲和美国不同阶级的家庭条件对比</text></g></g><g id="minder_node15"><g id="node_expander19" style="cursor: pointer;"><path id="kity_path_349" fill="white" stroke="gray" d="M389.0000063031912,83.5000052973628A6,6,0,1,1,377.0000063031912,83.5000052973628A6,6,0,1,1,389.0000063031912,83.5000052973628"></path><path id="kity_path_350" fill="none" stroke="gray" d="M378.5000063031912,83.5000052973628L387.5000063031912,83.5000052973628"></path></g><path id="node_outline20" fill="#73a1bf" stroke="rgb(115, 161, 191)" d="M337.5000058785081,90.50000559538603h91a3,3,0,0,1,3,3v20a3,3,0,0,1,-3,3h-91a3,3,0,0,1,-3,-3v-20a3,3,0,0,1,3,-3z" stroke-width="1"></path><g id="node_text20" fill="#ffffff"><text id="kity_text_171" text-rendering="inherit" font-size="14" dy=".8em" y="94.40000556409359" x="354.5000058785081">人工智能</text></g></g><g id="minder_node16"><g id="node_expander14" display="none" style="cursor: pointer;"><path id="kity_path_334" fill="white" stroke="gray" d="M362.5000059083104,137.5000061020255A6,6,0,1,1,350.5000059083104,137.5000061020255A6,6,0,1,1,362.5000059083104,137.5000061020255"></path><path id="kity_path_335" fill="none" stroke="gray"></path></g><path id="node_outline15" fill="#004080" stroke="none" d="M367.5000060722232,128.5000061020255h50a5,5,0,0,1,5,5v8a5,5,0,0,1,-5,5h-50a5,5,0,0,1,-5,-5v-8a5,5,0,0,1,5,-5z"></path><g id="node_text15" fill="#ffffff"><text id="kity_text_160" text-rendering="inherit" font-size="12" dy=".8em" y="129.70000607520342" x="367.5000060722232">道德底线</text></g></g><g id="minder_node17"><g id="node_expander17" style="cursor: pointer;"><path id="kity_path_343" fill="white" stroke="gray" d="M362.5000059083104,163.5000064894557A6,6,0,1,1,350.5000059083104,163.5000064894557A6,6,0,1,1,362.5000059083104,163.5000064894557"></path><path id="kity_path_344" fill="none" stroke="gray" d="M352.0000059083104,163.5000064894557L361.0000059083104,163.5000064894557"></path></g><path id="node_outline18" fill="#004080" stroke="none" d="M367.5000060722232,154.5000064894557h50a5,5,0,0,1,5,5v8a5,5,0,0,1,-5,5h-50a5,5,0,0,1,-5,-5v-8a5,5,0,0,1,5,-5z"></path><g id="node_text18" fill="#ffffff"><text id="kity_text_167" text-rendering="inherit" font-size="12" dy=".8em" y="155.7000064626336" x="367.5000060722232">应对措施</text></g></g><g id="minder_node18"><g id="node_expander16" style="cursor: pointer;"><path id="kity_path_340" fill="white" stroke="gray" d="M390.5000063255429,189.5000068768859A6,6,0,1,1,378.5000063255429,189.5000068768859A6,6,0,1,1,390.5000063255429,189.5000068768859"></path><path id="kity_path_341" fill="none" stroke="gray" d="M380.0000063255429,189.5000068768859L389.0000063255429,189.5000068768859"></path></g><path id="node_outline17" fill="none" stroke="none" d="M395.5000064894557,180.5000068768859h170a5,5,0,0,1,5,5v8a5,5,0,0,1,-5,5h-170a5,5,0,0,1,-5,-5v-8a5,5,0,0,1,5,-5z"></path><g id="node_text17" fill="black"><text id="kity_text_165" text-rendering="inherit" font-size="12" dy=".8em" y="181.7000068500638" x="395.5000064894557">数据行善可以防止数据外流问题</text></g></g><g id="minder_node19"><g id="node_expander15" display="none" style="cursor: pointer;"><path id="kity_path_337" fill="white" stroke="gray" d="M418.50000674277544,224.50000739842653A6,6,0,1,1,406.50000674277544,224.50000739842653A6,6,0,1,1,418.50000674277544,224.50000739842653"></path><path id="kity_path_338" fill="none" stroke="gray"></path></g><path id="node_outline16" fill="none" stroke="none" d="M423.5000069066882,206.50000739842653h206a5,5,0,0,1,5,5v26a5,5,0,0,1,-5,5h-206a5,5,0,0,1,-5,-5v-26a5,5,0,0,1,5,-5z"></path><g id="node_text16" fill="black"><text id="kity_text_162" text-rendering="inherit" font-size="12" dy=".8em" y="207.70000737160444" x="423.5000069066882">分享医疗数据，可以让更多的人去解决</text><text id="kity_text_163" text-rendering="inherit" font-size="12" dy=".8em" y="225.70000737160444" x="423.5000069066882">医疗问题</text></g></g><g id="minder_node20"><g id="node_expander18" display="none" style="cursor: pointer;"><path id="kity_path_346" fill="white" stroke="gray" d="M362.5000059083104,281.5000082477927A6,6,0,1,1,350.5000059083104,281.5000082477927A6,6,0,1,1,362.5000059083104,281.5000082477927"></path><path id="kity_path_347" fill="none" stroke="gray"></path></g><path id="node_outline19" fill="#004080" stroke="none" d="M367.5000060722232,272.5000082477927h50a5,5,0,0,1,5,5v8a5,5,0,0,1,-5,5h-50a5,5,0,0,1,-5,-5v-8a5,5,0,0,1,5,-5z"></path><g id="node_text19" fill="white"><text id="kity_text_169" text-rendering="inherit" font-size="12" dy=".8em" y="273.70000822097063" x="367.5000060722232">人机合作</text></g></g><g id="minder_node21"><g id="node_expander26" style="cursor: pointer;"><path id="kity_path_370" fill="white" stroke="gray" d="M705.5000110194087,83.5000052973628A6,6,0,1,1,693.5000110194087,83.5000052973628A6,6,0,1,1,705.5000110194087,83.5000052973628"></path><path id="kity_path_371" fill="none" stroke="gray" d="M695.0000110194087,83.5000052973628L704.0000110194087,83.5000052973628"></path></g><path id="node_outline27" fill="#73a1bf" stroke="rgb(115, 161, 191)" d="M653.500010587275,90.50000559538603h92a3,3,0,0,1,3,3v20a3,3,0,0,1,-3,3h-92a3,3,0,0,1,-3,-3v-20a3,3,0,0,1,3,-3z" stroke-width="1"></path><g id="node_text27" fill="#ffffff"><text id="kity_text_187" text-rendering="inherit" font-size="14" dy=".8em" y="94.40000556409359" x="670.500010587275">科技变化</text></g></g><g id="minder_node22"><g id="node_expander22" style="cursor: pointer;"><path id="kity_path_358" fill="white" stroke="gray" d="M678.5000106170774,137.5000061020255A6,6,0,1,1,666.5000106170774,137.5000061020255A6,6,0,1,1,678.5000106170774,137.5000061020255"></path><path id="kity_path_359" fill="none" stroke="gray" d="M668.0000106170774,137.5000061020255L677.0000106170774,137.5000061020255"></path></g><path id="node_outline23" fill="#004080" stroke="none" d="M683.5000107809901,128.5000061020255h50a5,5,0,0,1,5,5v8a5,5,0,0,1,-5,5h-50a5,5,0,0,1,-5,-5v-8a5,5,0,0,1,5,-5z"></path><g id="node_text23" fill="#ffffff"><text id="kity_text_178" text-rendering="inherit" font-size="12" dy=".8em" y="129.70000607520342" x="683.5000107809901">科技成瘾</text></g></g><g id="minder_node23"><g id="node_expander21" style="cursor: pointer;"><path id="kity_path_355" fill="white" stroke="gray" d="M706.5000110343099,163.5000064894557A6,6,0,1,1,694.5000110343099,163.5000064894557A6,6,0,1,1,706.5000110343099,163.5000064894557"></path><path id="kity_path_356" fill="none" stroke="gray" d="M696.0000110343099,163.5000064894557L705.0000110343099,163.5000064894557"></path></g><path id="node_outline22" fill="none" stroke="none" d="M711.5000111982226,154.5000064894557h121a5,5,0,0,1,5,5v8a5,5,0,0,1,-5,5h-121a5,5,0,0,1,-5,-5v-8a5,5,0,0,1,5,-5z"></path><g id="node_text22" fill="black"><text id="kity_text_176" text-rendering="inherit" font-size="12" dy=".8em" y="155.7000064626336" x="711.5000111982226">君子役物，小人役于物</text></g></g><g id="minder_node24"><g id="node_expander20" display="none" style="cursor: pointer;"><path id="kity_path_352" fill="white" stroke="gray" d="M734.5000114515424,198.50000701099634A6,6,0,1,1,722.5000114515424,198.50000701099634A6,6,0,1,1,734.5000114515424,198.50000701099634"></path><path id="kity_path_353" fill="none" stroke="gray"></path></g><path id="node_outline21" fill="none" stroke="none" d="M739.5000116154552,180.50000701099634h230a5,5,0,0,1,5,5v26a5,5,0,0,1,-5,5h-230a5,5,0,0,1,-5,-5v-26a5,5,0,0,1,5,-5z"></path><g id="node_text21" fill="black"><text id="kity_text_173" text-rendering="inherit" font-size="12" dy=".8em" y="181.70000698417425" x="739.5000116154552">消费媒体没有给我们呢“停止信号”，君子</text><text id="kity_text_174" text-rendering="inherit" font-size="12" dy=".8em" y="199.70000698417425" x="739.5000116154552">可以自己选择提供下来，小人却不可以</text></g></g><g id="minder_node25"><g id="node_expander25" style="cursor: pointer;"><path id="kity_path_367" fill="white" stroke="gray" d="M678.5000106170774,233.50000753253698A6,6,0,1,1,666.5000106170774,233.50000753253698A6,6,0,1,1,678.5000106170774,233.50000753253698"></path><path id="kity_path_368" fill="none" stroke="gray" d="M668.0000106170774,233.50000753253698L677.0000106170774,233.50000753253698"></path></g><path id="node_outline26" fill="#004080" stroke="none" d="M683.5000107809901,224.50000753253698h26a5,5,0,0,1,5,5v8a5,5,0,0,1,-5,5h-26a5,5,0,0,1,-5,-5v-8a5,5,0,0,1,5,-5z"></path><g id="node_text26" fill="#ffffff"><text id="kity_text_185" text-rendering="inherit" font-size="12" dy=".8em" y="225.7000075057149" x="683.5000107809901">编程</text></g></g><g id="minder_node26"><g id="node_expander24" style="cursor: pointer;"><path id="kity_path_364" fill="white" stroke="gray" d="M706.5000110343099,259.5000079199672A6,6,0,1,1,694.5000110343099,259.5000079199672A6,6,0,1,1,706.5000110343099,259.5000079199672"></path><path id="kity_path_365" fill="none" stroke="gray" d="M696.0000110343099,259.5000079199672L705.0000110343099,259.5000079199672"></path></g><path id="node_outline25" fill="none" stroke="none" d="M711.5000111982226,250.50000791996717h157a5,5,0,0,1,5,5v8a5,5,0,0,1,-5,5h-157a5,5,0,0,1,-5,-5v-8a5,5,0,0,1,5,-5z"></path><g id="node_text25" fill="black"><text id="kity_text_183" text-rendering="inherit" font-size="12" dy=".8em" y="251.70000789314508" x="711.5000111982226">黑客编程有利于健康民主发展</text></g></g><g id="minder_node27"><g id="node_expander23" display="none" style="cursor: pointer;"><path id="kity_path_361" fill="white" stroke="gray" d="M734.5000114515424,294.5000084415078A6,6,0,1,1,722.5000114515424,294.5000084415078A6,6,0,1,1,734.5000114515424,294.5000084415078"></path><path id="kity_path_362" fill="none" stroke="gray"></path></g><path id="node_outline24" fill="none" stroke="none" d="M739.5000116154552,276.5000084415078h228a5,5,0,0,1,5,5v26a5,5,0,0,1,-5,5h-228a5,5,0,0,1,-5,-5v-26a5,5,0,0,1,5,-5z"></path><g id="node_text24" fill="black"><text id="kity_text_180" text-rendering="inherit" font-size="12" dy=".8em" y="277.7000084146857" x="739.5000116154552">黑客潜入政府系统，揭露政府黑幕有助于民</text><text id="kity_text_181" text-rendering="inherit" font-size="12" dy=".8em" y="295.7000084146857" x="739.5000116154552">主发展</text></g></g><g id="minder_node28"><g id="node_expander35" style="cursor: pointer;"><path id="kity_path_397" fill="white" stroke="gray" d="M1052.000016182661,83.5000052973628A6,6,0,1,1,1040.000016182661,83.5000052973628A6,6,0,1,1,1052.000016182661,83.5000052973628"></path><path id="kity_path_398" fill="none" stroke="gray" d="M1041.500016182661,83.5000052973628L1050.500016182661,83.5000052973628"></path></g><path id="node_outline36" fill="#73a1bf" stroke="rgb(115, 161, 191)" d="M993.5000156536698,90.50000559538603h105a3,3,0,0,1,3,3v20a3,3,0,0,1,-3,3h-105a3,3,0,0,1,-3,-3v-20a3,3,0,0,1,3,-3z" stroke-width="1"></path><g id="node_text36" fill="#ffffff"><text id="kity_text_208" text-rendering="inherit" font-size="14" dy=".8em" y="94.40000556409359" x="1010.5000156536698">情感化设计</text></g></g><g id="minder_node29"><g id="node_expander31" style="cursor: pointer;"><path id="kity_path_385" fill="white" stroke="gray" d="M1018.5000156834722,137.5000061020255A6,6,0,1,1,1006.5000156834722,137.5000061020255A6,6,0,1,1,1018.5000156834722,137.5000061020255"></path><path id="kity_path_386" fill="none" stroke="gray" d="M1008.0000156834722,137.5000061020255L1017.0000156834722,137.5000061020255"></path></g><path id="node_outline32" fill="#004080" stroke="none" d="M1023.5000158473849,128.5000061020255h49a5,5,0,0,1,5,5v8a5,5,0,0,1,-5,5h-49a5,5,0,0,1,-5,-5v-8a5,5,0,0,1,5,-5z"></path><g id="node_text32" fill="#ffffff"><text id="kity_text_199" text-rendering="inherit" font-size="12" dy=".8em" y="129.70000607520342" x="1023.5000158473849">幽默设计</text></g></g><g id="minder_node30"><g id="node_expander28" style="cursor: pointer;"><path id="kity_path_376" fill="white" stroke="gray" d="M1046.5000161007047,163.5000064894557A6,6,0,1,1,1034.5000161007047,163.5000064894557A6,6,0,1,1,1046.5000161007047,163.5000064894557"></path><path id="kity_path_377" fill="none" stroke="gray" d="M1036.0000161007047,163.5000064894557L1045.0000161007047,163.5000064894557"></path></g><path id="node_outline29" fill="none" stroke="none" d="M1051.5000162646174,154.5000064894557h120a5,5,0,0,1,5,5v8a5,5,0,0,1,-5,5h-120a5,5,0,0,1,-5,-5v-8a5,5,0,0,1,5,-5z"></path><g id="node_text29" fill="black"><text id="kity_text_192" text-rendering="inherit" font-size="12" dy=".8em" y="155.7000064626336" x="1051.5000162646174">幽默中也带有逻辑思考</text></g></g><g id="minder_node31"><g id="node_expander27" display="none" style="cursor: pointer;"><path id="kity_path_373" fill="white" stroke="gray" d="M1074.5000165179372,198.50000701099634A6,6,0,1,1,1062.5000165179372,198.50000701099634A6,6,0,1,1,1074.5000165179372,198.50000701099634"></path><path id="kity_path_374" fill="none" stroke="gray"></path></g><path id="node_outline28" fill="none" stroke="none" d="M1079.50001668185,180.50000701099634h204a5,5,0,0,1,5,5v26a5,5,0,0,1,-5,5h-204a5,5,0,0,1,-5,-5v-26a5,5,0,0,1,5,-5z"></path><g id="node_text28" fill="black"><text id="kity_text_189" text-rendering="inherit" font-size="12" dy=".8em" y="181.70000698417425" x="1079.50001668185">幽默漫画用更深刻的表达方式使人们接</text><text id="kity_text_190" text-rendering="inherit" font-size="12" dy=".8em" y="199.70000698417425" x="1079.50001668185">受观点</text></g></g><g id="minder_node32"><g id="node_expander30" style="cursor: pointer;"><path id="kity_path_382" fill="white" stroke="gray" d="M1046.5000161007047,233.50000753253698A6,6,0,1,1,1034.5000161007047,233.50000753253698A6,6,0,1,1,1046.5000161007047,233.50000753253698"></path><path id="kity_path_383" fill="none" stroke="gray" d="M1036.0000161007047,233.50000753253698L1045.0000161007047,233.50000753253698"></path></g><path id="node_outline31" fill="none" stroke="none" d="M1051.5000162646174,224.50000753253698h73a5,5,0,0,1,5,5v8a5,5,0,0,1,-5,5h-73a5,5,0,0,1,-5,-5v-8a5,5,0,0,1,5,-5z"></path><g id="node_text31" fill="black"><text id="kity_text_197" text-rendering="inherit" font-size="12" dy=".8em" y="225.7000075057149" x="1051.5000162646174">幽默更有力量</text></g></g><g id="minder_node33"><g id="node_expander29" display="none" style="cursor: pointer;"><path id="kity_path_379" fill="white" stroke="gray" d="M1074.5000165179372,268.5000080540776A6,6,0,1,1,1062.5000165179372,268.5000080540776A6,6,0,1,1,1074.5000165179372,268.5000080540776"></path><path id="kity_path_380" fill="none" stroke="gray"></path></g><path id="node_outline30" fill="none" stroke="none" d="M1079.50001668185,250.50000805407763h208a5,5,0,0,1,5,5v26a5,5,0,0,1,-5,5h-208a5,5,0,0,1,-5,-5v-26a5,5,0,0,1,5,-5z"></path><g id="node_text30" fill="black"><text id="kity_text_194" text-rendering="inherit" font-size="12" dy=".8em" y="251.70000802725554" x="1079.50001668185">卢比·怀克丝利用幽默讲述了自己的精神</text><text id="kity_text_195" text-rendering="inherit" font-size="12" dy=".8em" y="269.70000802725554" x="1079.50001668185">疾病，告诉人们要善待他人</text></g></g><g id="minder_node34"><g id="node_expander34" style="cursor: pointer;"><path id="kity_path_394" fill="white" stroke="gray" d="M1018.5000156834722,303.50000857561827A6,6,0,1,1,1006.5000156834722,303.50000857561827A6,6,0,1,1,1018.5000156834722,303.50000857561827"></path><path id="kity_path_395" fill="none" stroke="gray" d="M1008.0000156834722,303.50000857561827L1017.0000156834722,303.50000857561827"></path></g><path id="node_outline35" fill="#004080" stroke="none" d="M1023.5000158473849,294.50000857561827h61a5,5,0,0,1,5,5v8a5,5,0,0,1,-5,5h-61a5,5,0,0,1,-5,-5v-8a5,5,0,0,1,5,-5z"></path><g id="node_text35" fill="#ffffff"><text id="kity_text_206" text-rendering="inherit" font-size="12" dy=".8em" y="295.7000085487962" x="1023.5000158473849">积极心理学</text></g></g><g id="minder_node35"><g id="node_expander33" style="cursor: pointer;"><path id="kity_path_391" fill="white" stroke="gray" d="M1046.5000161007047,329.50000896304846A6,6,0,1,1,1034.5000161007047,329.50000896304846A6,6,0,1,1,1046.5000161007047,329.50000896304846"></path><path id="kity_path_392" fill="none" stroke="gray" d="M1036.0000161007047,329.50000896304846L1045.0000161007047,329.50000896304846"></path></g><path id="node_outline34" fill="none" stroke="none" d="M1051.5000162646174,320.50000896304846h158a5,5,0,0,1,5,5v8a5,5,0,0,1,-5,5h-158a5,5,0,0,1,-5,-5v-8a5,5,0,0,1,5,-5z"></path><g id="node_text34" fill="black"><text id="kity_text_204" text-rendering="inherit" font-size="12" dy=".8em" y="321.70000893622637" x="1051.5000162646174">积极心理学有利于获得幸福感</text></g></g><g id="minder_node36"><g id="node_expander32" display="none" style="cursor: pointer;"><path id="kity_path_388" fill="white" stroke="gray" d="M1074.5000165179372,364.5000094845891A6,6,0,1,1,1062.5000165179372,364.5000094845891A6,6,0,1,1,1074.5000165179372,364.5000094845891"></path><path id="kity_path_389" fill="none" stroke="gray"></path></g><path id="node_outline33" fill="none" stroke="none" d="M1079.50001668185,346.5000094845891h205a5,5,0,0,1,5,5v26a5,5,0,0,1,-5,5h-205a5,5,0,0,1,-5,-5v-26a5,5,0,0,1,5,-5z"></path><g id="node_text33" fill="black"><text id="kity_text_201" text-rendering="inherit" font-size="12" dy=".8em" y="347.700009457767" x="1079.50001668185">利用科技、娱乐和生活，我们可以增加</text><text id="kity_text_202" text-rendering="inherit" font-size="12" dy=".8em" y="365.700009457767" x="1079.50001668185">这个世界人们幸福的分量</text></g></g><g id="minder_node37"><g id="node_expander47" style="cursor: pointer;"><path id="kity_path_433" fill="white" stroke="gray" d="M1355.5000207051635,83.5000052973628A6,6,0,1,1,1343.5000207051635,83.5000052973628A6,6,0,1,1,1355.5000207051635,83.5000052973628"></path><path id="kity_path_434" fill="none" stroke="gray" d="M1345.0000207051635,83.5000052973628L1354.0000207051635,83.5000052973628"></path></g><path id="node_outline48" fill="#73a1bf" stroke="rgb(115, 161, 191)" d="M1311.500020392239,90.50000559538603h76a3,3,0,0,1,3,3v20a3,3,0,0,1,-3,3h-76a3,3,0,0,1,-3,-3v-20a3,3,0,0,1,3,-3z" stroke-width="1"></path><g id="node_text48" fill="#ffffff"><text id="kity_text_233" text-rendering="inherit" font-size="14" dy=".8em" y="94.40000556409359" x="1328.500020392239">互联网</text></g></g><g id="minder_node38"><g id="node_expander38" style="cursor: pointer;"><path id="kity_path_406" fill="white" stroke="gray" d="M1336.5000204220414,137.5000061020255A6,6,0,1,1,1324.5000204220414,137.5000061020255A6,6,0,1,1,1336.5000204220414,137.5000061020255"></path><path id="kity_path_407" fill="none" stroke="gray" d="M1326.0000204220414,137.5000061020255L1335.0000204220414,137.5000061020255"></path></g><path id="node_outline39" fill="#004080" stroke="none" d="M1341.5000205859542,128.5000061020255h48a5,5,0,0,1,5,5v8a5,5,0,0,1,-5,5h-48a5,5,0,0,1,-5,-5v-8a5,5,0,0,1,5,-5z"></path><g id="node_text39" fill="#ffffff"><text id="kity_text_214" text-rendering="inherit" font-size="12" dy=".8em" y="129.70000607520342" x="1341.5000205859542">网络行为</text></g></g><g id="minder_node39"><g id="node_expander37" style="cursor: pointer;"><path id="kity_path_403" fill="white" stroke="gray" d="M1364.500020839274,163.5000064894557A6,6,0,1,1,1352.500020839274,163.5000064894557A6,6,0,1,1,1364.500020839274,163.5000064894557"></path><path id="kity_path_404" fill="none" stroke="gray" d="M1354.000020839274,163.5000064894557L1363.000020839274,163.5000064894557"></path></g><path id="node_outline38" fill="none" stroke="none" d="M1369.5000210031867,154.5000064894557h156a5,5,0,0,1,5,5v8a5,5,0,0,1,-5,5h-156a5,5,0,0,1,-5,-5v-8a5,5,0,0,1,5,-5z"></path><g id="node_text38" fill="black"><text id="kity_text_212" text-rendering="inherit" font-size="12" dy=".8em" y="155.7000064626336" x="1369.5000210031867">网络行为体现了社会性别认知</text></g></g><g id="minder_node40"><g id="node_expander36" display="none" style="cursor: pointer;"><path id="kity_path_400" fill="white" stroke="gray" d="M1392.5000212565064,189.5000068768859A6,6,0,1,1,1380.5000212565064,189.5000068768859A6,6,0,1,1,1392.5000212565064,189.5000068768859"></path><path id="kity_path_401" fill="none" stroke="gray"></path></g><path id="node_outline37" fill="none" stroke="none" d="M1397.5000214204192,180.5000068768859h157a5,5,0,0,1,5,5v8a5,5,0,0,1,-5,5h-157a5,5,0,0,1,-5,-5v-8a5,5,0,0,1,5,-5z"></path><g id="node_text37" fill="black"><text id="kity_text_210" text-rendering="inherit" font-size="12" dy=".8em" y="181.7000068500638" x="1397.5000214204192">网络女权主义者标榜女性崛起</text></g></g><g id="minder_node41"><g id="node_expander43" style="cursor: pointer;"><path id="kity_path_421" fill="white" stroke="gray" d="M1336.5000204220414,215.50000726431608A6,6,0,1,1,1324.5000204220414,215.50000726431608A6,6,0,1,1,1336.5000204220414,215.50000726431608"></path><path id="kity_path_422" fill="none" stroke="gray" d="M1326.0000204220414,215.50000726431608L1335.0000204220414,215.50000726431608"></path></g><path id="node_outline44" fill="#004080" stroke="none" d="M1341.5000205859542,206.50000726431608h61a5,5,0,0,1,5,5v8a5,5,0,0,1,-5,5h-61a5,5,0,0,1,-5,-5v-8a5,5,0,0,1,5,-5z"></path><g id="node_text44" fill="#ffffff"><text id="kity_text_224" text-rendering="inherit" font-size="12" dy=".8em" y="207.700007237494" x="1341.5000205859542">平台与开放</text></g></g><g id="minder_node42"><g id="node_expander40" style="cursor: pointer;"><path id="kity_path_412" fill="white" stroke="gray" d="M1364.500020839274,241.50000765174627A6,6,0,1,1,1352.500020839274,241.50000765174627A6,6,0,1,1,1364.500020839274,241.50000765174627"></path><path id="kity_path_413" fill="none" stroke="gray" d="M1354.000020839274,241.50000765174627L1363.000020839274,241.50000765174627"></path></g><path id="node_outline41" fill="none" stroke="none" d="M1369.5000210031867,232.50000765174627h170a5,5,0,0,1,5,5v8a5,5,0,0,1,-5,5h-170a5,5,0,0,1,-5,-5v-8a5,5,0,0,1,5,-5z"></path><g id="node_text41" fill="black"><text id="kity_text_218" text-rendering="inherit" font-size="12" dy=".8em" y="233.70000762492418" x="1369.5000210031867">人们可以自发实现网络需求满足</text></g></g><g id="minder_node43"><g id="node_expander39" display="none" style="cursor: pointer;"><path id="kity_path_409" fill="white" stroke="gray" d="M1392.5000212565064,267.50000803917646A6,6,0,1,1,1380.5000212565064,267.50000803917646A6,6,0,1,1,1392.5000212565064,267.50000803917646"></path><path id="kity_path_410" fill="none" stroke="gray"></path></g><path id="node_outline40" fill="none" stroke="none" d="M1397.5000214204192,258.50000803917646h109a5,5,0,0,1,5,5v8a5,5,0,0,1,-5,5h-109a5,5,0,0,1,-5,-5v-8a5,5,0,0,1,5,-5z"></path><g id="node_text40" fill="black"><text id="kity_text_216" text-rendering="inherit" font-size="12" dy=".8em" y="259.7000080123544" x="1397.5000214204192">维基百科由网民编纂</text></g></g><g id="minder_node44"><g id="node_expander42" style="cursor: pointer;"><path id="kity_path_418" fill="white" stroke="gray" d="M1364.500020839274,293.50000842660666A6,6,0,1,1,1352.500020839274,293.50000842660666A6,6,0,1,1,1364.500020839274,293.50000842660666"></path><path id="kity_path_419" fill="none" stroke="gray" d="M1354.000020839274,293.50000842660666L1363.000020839274,293.50000842660666"></path></g><path id="node_outline43" fill="none" stroke="none" d="M1369.5000210031867,284.50000842660666h121a5,5,0,0,1,5,5v8a5,5,0,0,1,-5,5h-121a5,5,0,0,1,-5,-5v-8a5,5,0,0,1,5,-5z"></path><g id="node_text43" fill="black"><text id="kity_text_222" text-rendering="inherit" font-size="12" dy=".8em" y="285.70000839978456" x="1369.5000210031867">科技信仰影响我们情绪</text></g></g><g id="minder_node45"><g id="node_expander41" display="none" style="cursor: pointer;"><path id="kity_path_415" fill="white" stroke="gray" d="M1392.5000212565064,319.50000881403685A6,6,0,1,1,1380.5000212565064,319.50000881403685A6,6,0,1,1,1392.5000212565064,319.50000881403685"></path><path id="kity_path_416" fill="none" stroke="gray"></path></g><path id="node_outline42" fill="none" stroke="none" d="M1397.5000214204192,310.50000881403685h193a5,5,0,0,1,5,5v8a5,5,0,0,1,-5,5h-193a5,5,0,0,1,-5,-5v-8a5,5,0,0,1,5,-5z"></path><g id="node_text42" fill="black"><text id="kity_text_220" text-rendering="inherit" font-size="12" dy=".8em" y="311.70000878721476" x="1397.5000214204192">“苹果教徒”会让人们无限维护苹果</text></g></g><g id="minder_node46"><g id="node_expander46" style="cursor: pointer;"><path id="kity_path_430" fill="white" stroke="gray" d="M1336.5000204220414,345.50000920146704A6,6,0,1,1,1324.5000204220414,345.50000920146704A6,6,0,1,1,1336.5000204220414,345.50000920146704"></path><path id="kity_path_431" fill="none" stroke="gray" d="M1326.0000204220414,345.50000920146704L1335.0000204220414,345.50000920146704"></path></g><path id="node_outline47" fill="#004080" stroke="none" d="M1341.5000205859542,336.50000920146704h25a5,5,0,0,1,5,5v8a5,5,0,0,1,-5,5h-25a5,5,0,0,1,-5,-5v-8a5,5,0,0,1,5,-5z"></path><g id="node_text47" fill="#ffffff"><text id="kity_text_231" text-rendering="inherit" font-size="12" dy=".8em" y="337.70000917464495" x="1341.5000205859542">情绪</text></g></g><g id="minder_node47"><g id="node_expander45" style="cursor: pointer;"><path id="kity_path_427" fill="white" stroke="gray" d="M1364.500020839274,371.5000095888972A6,6,0,1,1,1352.500020839274,371.5000095888972A6,6,0,1,1,1364.500020839274,371.5000095888972"></path><path id="kity_path_428" fill="none" stroke="gray" d="M1354.000020839274,371.5000095888972L1363.000020839274,371.5000095888972"></path></g><path id="node_outline46" fill="none" stroke="none" d="M1369.5000210031867,362.5000095888972h241a5,5,0,0,1,5,5v8a5,5,0,0,1,-5,5h-241a5,5,0,0,1,-5,-5v-8a5,5,0,0,1,5,-5z"></path><g id="node_text46" fill="black"><text id="kity_text_229" text-rendering="inherit" font-size="12" dy=".8em" y="363.70000956207514" x="1369.5000210031867">情绪是你大脑根据人生经验在当下建立的猜测</text></g></g><g id="minder_node48"><g id="node_expander44" display="none" style="cursor: pointer;"><path id="kity_path_424" fill="white" stroke="gray" d="M1392.5000212565064,406.50001011043787A6,6,0,1,1,1380.5000212565064,406.50001011043787A6,6,0,1,1,1392.5000212565064,406.50001011043787"></path><path id="kity_path_425" fill="none" stroke="gray"></path></g><path id="node_outline45" fill="none" stroke="none" d="M1397.5000214204192,388.50001011043787h217a5,5,0,0,1,5,5v26a5,5,0,0,1,-5,5h-217a5,5,0,0,1,-5,-5v-26a5,5,0,0,1,5,-5z"></path><g id="node_text45" fill="black"><text id="kity_text_226" text-rendering="inherit" font-size="12" dy=".8em" y="389.7000100836158" x="1397.5000214204192">当你看见一条蛇，再浮现黑白色块，你很</text><text id="kity_text_227" text-rendering="inherit" font-size="12" dy=".8em" y="407.7000100836158" x="1397.5000214204192">容易从黑白色块中想像出一条蛇</text></g></g><g id="minder_node49"><g id="node_expander51" style="cursor: pointer;"><path id="kity_path_445" fill="white" stroke="gray" d="M1696.5000257864594,83.5000052973628A6,6,0,1,1,1684.5000257864594,83.5000052973628A6,6,0,1,1,1696.5000257864594,83.5000052973628"></path><path id="kity_path_446" fill="none" stroke="gray" d="M1686.0000257864594,83.5000052973628L1695.0000257864594,83.5000052973628"></path></g><path id="node_outline52" fill="#73a1bf" stroke="rgb(115, 161, 191)" d="M1638.5000252649188,90.50000559538603h104a3,3,0,0,1,3,3v20a3,3,0,0,1,-3,3h-104a3,3,0,0,1,-3,-3v-20a3,3,0,0,1,3,-3z" stroke-width="1"></path><g id="node_text52" fill="#ffffff"><text id="kity_text_241" text-rendering="inherit" font-size="14" dy=".8em" y="94.40000556409359" x="1655.5000252649188">可持续发展</text></g></g><g id="minder_node50"><g id="node_expander49" style="cursor: pointer;"><path id="kity_path_439" fill="white" stroke="gray" d="M1663.5000252947211,137.5000061020255A6,6,0,1,1,1651.5000252947211,137.5000061020255A6,6,0,1,1,1663.5000252947211,137.5000061020255"></path><path id="kity_path_440" fill="none" stroke="gray" d="M1653.0000252947211,137.5000061020255L1662.0000252947211,137.5000061020255"></path></g><path id="node_outline50" fill="none" stroke="none" d="M1668.500025458634,128.5000061020255h156a5,5,0,0,1,5,5v8a5,5,0,0,1,-5,5h-156a5,5,0,0,1,-5,-5v-8a5,5,0,0,1,5,-5z"></path><g id="node_text50" fill="black"><text id="kity_text_237" text-rendering="inherit" font-size="12" dy=".8em" y="129.70000607520342" x="1668.500025458634">可持续发展是人类发展的基础</text></g></g><g id="minder_node51"><g id="node_expander48" display="none" style="cursor: pointer;"><path id="kity_path_436" fill="white" stroke="gray" d="M1691.5000257119536,163.5000064894557A6,6,0,1,1,1679.5000257119536,163.5000064894557A6,6,0,1,1,1691.5000257119536,163.5000064894557"></path><path id="kity_path_437" fill="none" stroke="gray"></path></g><path id="node_outline49" fill="none" stroke="none" d="M1696.5000258758664,154.5000064894557h209a5,5,0,0,1,5,5v8a5,5,0,0,1,-5,5h-209a5,5,0,0,1,-5,-5v-8a5,5,0,0,1,5,-5z"></path><g id="node_text49" fill="black"><text id="kity_text_235" text-rendering="inherit" font-size="12" dy=".8em" y="155.7000064626336" x="1696.5000258758664">1952年伦敦烟雾事件和如今的北京雾霾</text></g></g><g id="minder_node52"><g id="node_expander50" display="none" style="cursor: pointer;"><path id="kity_path_442" fill="white" stroke="gray" d="M1663.5000252947211,189.5000068768859A6,6,0,1,1,1651.5000252947211,189.5000068768859A6,6,0,1,1,1663.5000252947211,189.5000068768859"></path><path id="kity_path_443" fill="none" stroke="gray"></path></g><path id="node_outline51" fill="#004080" stroke="none" d="M1668.500025458634,180.5000068768859h85a5,5,0,0,1,5,5v8a5,5,0,0,1,-5,5h-85a5,5,0,0,1,-5,-5v-8a5,5,0,0,1,5,-5z"></path><g id="node_text51" fill="white"><text id="kity_text_239" text-rendering="inherit" font-size="12" dy=".8em" y="181.7000068500638" x="1668.500025458634">可持续发展目标</text></g></g></g></g></svg>